%TF.GenerationSoftware,KiCad,Pcbnew,10.0.1*%
%TF.CreationDate,2026-05-24T20:52:24+05:30*%
%TF.ProjectId,CUBESAT_EPS,43554245-5341-4545-9f45-50532e6b6963,rev?*%
%TF.SameCoordinates,Original*%
%TF.FileFunction,Copper,L1,Top*%
%TF.FilePolarity,Positive*%
%FSLAX46Y46*%
G04 Gerber Fmt 4.6, Leading zero omitted, Abs format (unit mm)*
G04 Created by KiCad (PCBNEW 10.0.1) date 2026-05-24 20:52:24*
%MOMM*%
%LPD*%
G01*
G04 APERTURE LIST*
G04 Aperture macros list*
%AMRoundRect*
0 Rectangle with rounded corners*
0 $1 Rounding radius*
0 $2 $3 $4 $5 $6 $7 $8 $9 X,Y pos of 4 corners*
0 Add a 4 corners polygon primitive as box body*
4,1,4,$2,$3,$4,$5,$6,$7,$8,$9,$2,$3,0*
0 Add four circle primitives for the rounded corners*
1,1,$1+$1,$2,$3*
1,1,$1+$1,$4,$5*
1,1,$1+$1,$6,$7*
1,1,$1+$1,$8,$9*
0 Add four rect primitives between the rounded corners*
20,1,$1+$1,$2,$3,$4,$5,0*
20,1,$1+$1,$4,$5,$6,$7,0*
20,1,$1+$1,$6,$7,$8,$9,0*
20,1,$1+$1,$8,$9,$2,$3,0*%
G04 Aperture macros list end*
%TA.AperFunction,ComponentPad*%
%ADD10C,1.600000*%
%TD*%
%TA.AperFunction,ComponentPad*%
%ADD11RoundRect,0.250000X-1.050000X1.050000X-1.050000X-1.050000X1.050000X-1.050000X1.050000X1.050000X0*%
%TD*%
%TA.AperFunction,ComponentPad*%
%ADD12C,2.600000*%
%TD*%
%TA.AperFunction,ComponentPad*%
%ADD13R,1.905000X2.000000*%
%TD*%
%TA.AperFunction,ComponentPad*%
%ADD14O,1.905000X2.000000*%
%TD*%
%TA.AperFunction,ComponentPad*%
%ADD15R,1.600000X1.600000*%
%TD*%
%TA.AperFunction,ComponentPad*%
%ADD16O,1.600000X1.600000*%
%TD*%
%TA.AperFunction,ComponentPad*%
%ADD17RoundRect,0.250000X-1.050000X-1.050000X1.050000X-1.050000X1.050000X1.050000X-1.050000X1.050000X0*%
%TD*%
%TA.AperFunction,ComponentPad*%
%ADD18RoundRect,0.250000X1.350000X1.350000X-1.350000X1.350000X-1.350000X-1.350000X1.350000X-1.350000X0*%
%TD*%
%TA.AperFunction,ComponentPad*%
%ADD19C,3.200000*%
%TD*%
%TA.AperFunction,ComponentPad*%
%ADD20RoundRect,0.250000X-0.550000X0.550000X-0.550000X-0.550000X0.550000X-0.550000X0.550000X0.550000X0*%
%TD*%
%TA.AperFunction,Conductor*%
%ADD21C,0.600000*%
%TD*%
G04 APERTURE END LIST*
D10*
%TO.P,C1,1*%
%TO.N,GND*%
X83500000Y-121500000D03*
%TO.P,C1,2*%
%TO.N,/BAT_VIN*%
X83500000Y-116500000D03*
%TD*%
%TO.P,R3,1*%
%TO.N,/PAYLOAD_EN*%
X110000000Y-134920000D03*
%TO.P,R3,2*%
%TO.N,GND*%
X110000000Y-145080000D03*
%TD*%
D11*
%TO.P,J2,1,Pin_1_1*%
%TO.N,Net-(J2-Pin_1)*%
X135000000Y-140420000D03*
D12*
%TO.P,J2,2,Pin_2_2*%
%TO.N,/BAT_VIN*%
X135000000Y-145500000D03*
%TD*%
D10*
%TO.P,R2,1*%
%TO.N,/VMON*%
X91000000Y-146500000D03*
%TO.P,R2,2*%
%TO.N,GND*%
X91000000Y-156660000D03*
%TD*%
%TO.P,C2,1*%
%TO.N,GND*%
X108500000Y-121500000D03*
%TO.P,C2,2*%
%TO.N,/+5V_SYS*%
X108500000Y-116500000D03*
%TD*%
%TO.P,R1,1*%
%TO.N,/BAT_VIN*%
X91500000Y-128920000D03*
%TO.P,R1,2*%
%TO.N,/VMON*%
X91500000Y-139080000D03*
%TD*%
D13*
%TO.P,U2,1,GND_1*%
%TO.N,GND*%
X133500000Y-112000000D03*
D14*
%TO.P,U2,2,VO_2*%
%TO.N,/<NO NET>*%
X130960000Y-112000000D03*
%TO.P,U2,3,VI_3*%
%TO.N,/+5V_SYS*%
X128420000Y-112000000D03*
%TD*%
D15*
%TO.P,A1,1,D1/TX_1*%
%TO.N,unconnected-(A1-D1{slash}TX-Pad1)*%
X151000000Y-92800000D03*
D16*
%TO.P,A1,2,D0/RX_2*%
%TO.N,unconnected-(A1-D0{slash}RX-Pad2)*%
X151000000Y-95340000D03*
%TO.P,A1,3,~{RESET}_3*%
%TO.N,/+5V_SYS*%
X151000000Y-97880000D03*
%TO.P,A1,4,GND_4*%
%TO.N,GND*%
X151000000Y-100420000D03*
%TO.P,A1,5,D2_5*%
%TO.N,/PAYLOAD_EN*%
X151000000Y-102960000D03*
%TO.P,A1,6,D3_6*%
%TO.N,unconnected-(A1-D3-Pad6)*%
X151000000Y-105500000D03*
%TO.P,A1,7,D4_7*%
%TO.N,unconnected-(A1-D4-Pad7)*%
X151000000Y-108040000D03*
%TO.P,A1,8,D5_8*%
%TO.N,unconnected-(A1-D5-Pad8)*%
X151000000Y-110580000D03*
%TO.P,A1,9,D6_9*%
%TO.N,unconnected-(A1-D6-Pad9)*%
X151000000Y-113120000D03*
%TO.P,A1,10,D7_10*%
%TO.N,unconnected-(A1-D7-Pad10)*%
X151000000Y-115660000D03*
%TO.P,A1,11,D8_11*%
%TO.N,unconnected-(A1-D8-Pad11)*%
X151000000Y-118200000D03*
%TO.P,A1,12,D9_12*%
%TO.N,unconnected-(A1-D9-Pad12)*%
X151000000Y-120740000D03*
%TO.P,A1,13,D10_13*%
%TO.N,unconnected-(A1-D10-Pad13)*%
X151000000Y-123280000D03*
%TO.P,A1,14,D11_14*%
%TO.N,unconnected-(A1-D11-Pad14)*%
X151000000Y-125820000D03*
%TO.P,A1,15,D12_15*%
%TO.N,unconnected-(A1-D12-Pad15)*%
X151000000Y-128360000D03*
%TO.P,A1,16,D13_16*%
%TO.N,unconnected-(A1-D13-Pad16)*%
X166240000Y-128360000D03*
%TO.P,A1,17,3V3_17*%
%TO.N,unconnected-(A1-3V3-Pad17)*%
X166240000Y-125820000D03*
%TO.P,A1,18,AREF_18*%
%TO.N,unconnected-(A1-AREF-Pad18)*%
X166240000Y-123280000D03*
%TO.P,A1,19,A0_19*%
%TO.N,/VMON*%
X166240000Y-120740000D03*
%TO.P,A1,20,A1_20*%
%TO.N,unconnected-(A1-A1-Pad20)*%
X166240000Y-118200000D03*
%TO.P,A1,21,A2_21*%
%TO.N,unconnected-(A1-A2-Pad21)*%
X166240000Y-115660000D03*
%TO.P,A1,22,A3_22*%
%TO.N,unconnected-(A1-A3-Pad22)*%
X166240000Y-113120000D03*
%TO.P,A1,23,A4_23*%
%TO.N,unconnected-(A1-A4-Pad23)*%
X166240000Y-110580000D03*
%TO.P,A1,24,A5_24*%
%TO.N,unconnected-(A1-A5-Pad24)*%
X166240000Y-108040000D03*
%TO.P,A1,25,A6_25*%
%TO.N,unconnected-(A1-A6-Pad25)*%
X166240000Y-105500000D03*
%TO.P,A1,26,A7_26*%
%TO.N,unconnected-(A1-A7-Pad26)*%
X166240000Y-102960000D03*
%TO.P,A1,27,+5V_27*%
%TO.N,/+5V_SYS*%
X166240000Y-100420000D03*
%TO.P,A1,28,~{RESET}_28*%
X166240000Y-97880000D03*
%TO.P,A1,29,GND_29*%
%TO.N,GND*%
X166240000Y-95340000D03*
%TO.P,A1,30,VIN_30*%
%TO.N,/BAT_VIN*%
X166240000Y-92800000D03*
%TD*%
D17*
%TO.P,J1,1,Pin_1_1*%
%TO.N,Net-(D1-A)*%
X60420000Y-126000000D03*
D12*
%TO.P,J1,2,Pin_2_2*%
%TO.N,GND*%
X65500000Y-126000000D03*
%TD*%
D13*
%TO.P,U1,1,VI_1*%
%TO.N,/BAT_VIN*%
X94960000Y-111950000D03*
D14*
%TO.P,U1,2,GND_2*%
%TO.N,GND*%
X97500000Y-111950000D03*
%TO.P,U1,3,VO_3*%
%TO.N,/+5V_SYS*%
X100040000Y-111950000D03*
%TD*%
D13*
%TO.P,Q1,1,G_1*%
%TO.N,/PAYLOAD_EN*%
X118420000Y-131000000D03*
D14*
%TO.P,Q1,2,D_2*%
%TO.N,Net-(J2-Pin_1)*%
X120960000Y-131000000D03*
%TO.P,Q1,3,S_3*%
%TO.N,GND*%
X123500000Y-131000000D03*
%TD*%
D18*
%TO.P,D1,1,K_1*%
%TO.N,/BAT_VIN*%
X75620000Y-112000000D03*
D19*
%TO.P,D1,2,A_2*%
%TO.N,Net-(D1-A)*%
X60380000Y-112000000D03*
%TD*%
D20*
%TO.P,C4,1*%
%TO.N,/<NO NET>*%
X142000000Y-117294888D03*
D10*
%TO.P,C4,2*%
%TO.N,GND*%
X142000000Y-119794888D03*
%TD*%
D20*
%TO.P,C3,1*%
%TO.N,/+5V_SYS*%
X121500000Y-117294888D03*
D10*
%TO.P,C3,2*%
%TO.N,GND*%
X121500000Y-119794888D03*
%TD*%
%TO.N,/+5V_SYS*%
D21*
X121500000Y-117294888D02*
X121500000Y-114500000D01*
X166240000Y-97880000D02*
X166240000Y-100420000D01*
X128420000Y-103080000D02*
X133620000Y-97880000D01*
X121500000Y-114500000D02*
X124000000Y-112000000D01*
X118500000Y-112000000D02*
X118450000Y-111950000D01*
X151000000Y-97880000D02*
X151000000Y-98500000D01*
X128420000Y-111920000D02*
X128420000Y-103080000D01*
X128420000Y-112000000D02*
X124000000Y-112000000D01*
X100040000Y-111950000D02*
X111500000Y-111950000D01*
X108500000Y-114950000D02*
X111500000Y-111950000D01*
X118450000Y-111950000D02*
X111500000Y-111950000D01*
X128420000Y-112000000D02*
X128500000Y-112000000D01*
X166240000Y-97880000D02*
X151000000Y-97880000D01*
X108500000Y-116500000D02*
X108500000Y-114950000D01*
X124000000Y-112000000D02*
X118500000Y-112000000D01*
X128500000Y-112000000D02*
X128420000Y-111920000D01*
X151000000Y-97880000D02*
X133620000Y-97880000D01*
%TO.N,/VMON*%
X91000000Y-146500000D02*
X95000000Y-146500000D01*
X145500000Y-165000000D02*
X174000000Y-136500000D01*
X174000000Y-136500000D02*
X174000000Y-125500000D01*
X169240000Y-120740000D02*
X166240000Y-120740000D01*
X91500000Y-146000000D02*
X91000000Y-146500000D01*
X91500000Y-139080000D02*
X91500000Y-146000000D01*
X113500000Y-165000000D02*
X145500000Y-165000000D01*
X174000000Y-125500000D02*
X169240000Y-120740000D01*
X95000000Y-146500000D02*
X113500000Y-165000000D01*
%TO.N,GND*%
X97500000Y-116000000D02*
X103000000Y-121500000D01*
X97500000Y-111950000D02*
X97500000Y-116000000D01*
X135500000Y-119794888D02*
X142000000Y-119794888D01*
X110000000Y-121500000D02*
X111705112Y-119794888D01*
X121500000Y-119794888D02*
X135500000Y-119794888D01*
X108500000Y-121500000D02*
X110000000Y-121500000D01*
X133500000Y-112000000D02*
X133500000Y-117794888D01*
X108500000Y-121500000D02*
X103000000Y-121500000D01*
X111705112Y-119794888D02*
X121500000Y-119794888D01*
X133500000Y-117794888D02*
X135500000Y-119794888D01*
%TO.N,/PAYLOAD_EN*%
X122000000Y-125500000D02*
X118420000Y-129080000D01*
X113920000Y-131000000D02*
X110000000Y-134920000D01*
X141000000Y-125500000D02*
X122000000Y-125500000D01*
X151000000Y-102960000D02*
X149040000Y-102960000D01*
X118420000Y-129080000D02*
X118420000Y-131000000D01*
X146500000Y-105500000D02*
X146500000Y-120000000D01*
X118420000Y-131000000D02*
X113920000Y-131000000D01*
X146500000Y-120000000D02*
X141000000Y-125500000D01*
X149040000Y-102960000D02*
X146500000Y-105500000D01*
%TO.N,/BAT_VIN*%
X92500000Y-112000000D02*
X92550000Y-111950000D01*
X173500000Y-86000000D02*
X173000000Y-85500000D01*
X88500000Y-116500000D02*
X100500000Y-128500000D01*
X85500000Y-112000000D02*
X88500000Y-112000000D01*
X135000000Y-157000000D02*
X135000000Y-145500000D01*
X100500000Y-128500000D02*
X100500000Y-142500000D01*
X173500000Y-87500000D02*
X173500000Y-86000000D01*
X75620000Y-118120000D02*
X75620000Y-112000000D01*
X75620000Y-113300000D02*
X75500000Y-113300000D01*
X75500000Y-91500000D02*
X75620000Y-91620000D01*
X88500000Y-112000000D02*
X92500000Y-112000000D01*
X83500000Y-116500000D02*
X83500000Y-114000000D01*
X86420000Y-128920000D02*
X75620000Y-118120000D01*
X115000000Y-157000000D02*
X135000000Y-157000000D01*
X92550000Y-111950000D02*
X94960000Y-111950000D01*
X88500000Y-112000000D02*
X88500000Y-116500000D01*
X166240000Y-92800000D02*
X168200000Y-92800000D01*
X91000000Y-128920000D02*
X86420000Y-128920000D01*
X75620000Y-91620000D02*
X75620000Y-112000000D01*
X173000000Y-85500000D02*
X81500000Y-85500000D01*
X168200000Y-92800000D02*
X173500000Y-87500000D01*
X75620000Y-112000000D02*
X75620000Y-113300000D01*
X83500000Y-114000000D02*
X85500000Y-112000000D01*
X100500000Y-142500000D02*
X115000000Y-157000000D01*
X81500000Y-85500000D02*
X75500000Y-91500000D01*
X75620000Y-112000000D02*
X85500000Y-112000000D01*
%TO.N,/<NO NET>*%
X133647500Y-108500000D02*
X139500000Y-108500000D01*
X130960000Y-112000000D02*
X130960000Y-111187500D01*
X130960000Y-111187500D02*
X133647500Y-108500000D01*
X139500000Y-108500000D02*
X142000000Y-111000000D01*
X142000000Y-111000000D02*
X142000000Y-117294888D01*
%TO.N,Net-(D1-A)*%
X60500000Y-126000000D02*
X60500000Y-112120000D01*
X60500000Y-112120000D02*
X60380000Y-112000000D01*
X60420000Y-126000000D02*
X60500000Y-126000000D01*
%TO.N,Net-(J2-Pin_1)*%
X126672500Y-140672500D02*
X133955000Y-140672500D01*
X120960000Y-131000000D02*
X120960000Y-134960000D01*
X120960000Y-134960000D02*
X126672500Y-140672500D01*
%TD*%
%TA.AperFunction,Conductor*%
%TO.N,GND*%
G36*
X172642539Y-86320185D02*
G01*
X172688294Y-86372989D01*
X172699500Y-86424500D01*
X172699500Y-87117060D01*
X172679815Y-87184099D01*
X172663181Y-87204741D01*
X167904741Y-91963181D01*
X167843418Y-91996666D01*
X167817060Y-91999500D01*
X167329033Y-91999500D01*
X167261994Y-91979815D01*
X167234748Y-91956038D01*
X167231964Y-91952779D01*
X167087213Y-91808028D01*
X166921613Y-91687715D01*
X166921612Y-91687714D01*
X166921610Y-91687713D01*
X166864653Y-91658691D01*
X166739223Y-91594781D01*
X166544534Y-91531522D01*
X166369995Y-91503878D01*
X166342352Y-91499500D01*
X166137648Y-91499500D01*
X166113329Y-91503351D01*
X165935465Y-91531522D01*
X165740776Y-91594781D01*
X165558386Y-91687715D01*
X165392786Y-91808028D01*
X165248028Y-91952786D01*
X165127715Y-92118386D01*
X165034781Y-92300776D01*
X164971522Y-92495465D01*
X164939500Y-92697648D01*
X164939500Y-92902351D01*
X164971522Y-93104534D01*
X165034781Y-93299223D01*
X165127715Y-93481613D01*
X165248028Y-93647213D01*
X165392786Y-93791971D01*
X165547749Y-93904556D01*
X165558390Y-93912287D01*
X165630424Y-93948990D01*
X165651629Y-93959795D01*
X165702425Y-94007770D01*
X165719220Y-94075591D01*
X165696682Y-94141726D01*
X165651629Y-94180765D01*
X165558650Y-94228140D01*
X165393105Y-94348417D01*
X165393104Y-94348417D01*
X165248417Y-94493104D01*
X165248417Y-94493105D01*
X165128140Y-94658650D01*
X165035244Y-94840970D01*
X164972009Y-95035586D01*
X164963391Y-95090000D01*
X165806988Y-95090000D01*
X165774075Y-95147007D01*
X165740000Y-95274174D01*
X165740000Y-95405826D01*
X165774075Y-95532993D01*
X165806988Y-95590000D01*
X164963391Y-95590000D01*
X164972009Y-95644413D01*
X165035244Y-95839029D01*
X165128140Y-96021349D01*
X165248417Y-96186894D01*
X165248417Y-96186895D01*
X165393104Y-96331582D01*
X165558652Y-96451861D01*
X165651628Y-96499234D01*
X165702425Y-96547208D01*
X165719220Y-96615029D01*
X165696683Y-96681164D01*
X165651630Y-96720203D01*
X165558388Y-96767713D01*
X165392786Y-96888028D01*
X165248035Y-97032779D01*
X165245252Y-97036038D01*
X165186742Y-97074227D01*
X165150967Y-97079500D01*
X152089033Y-97079500D01*
X152021994Y-97059815D01*
X151994748Y-97036038D01*
X151991964Y-97032779D01*
X151847213Y-96888028D01*
X151681614Y-96767715D01*
X151675006Y-96764348D01*
X151588917Y-96720483D01*
X151538123Y-96672511D01*
X151521328Y-96604690D01*
X151543865Y-96538555D01*
X151588917Y-96499516D01*
X151681610Y-96452287D01*
X151702770Y-96436913D01*
X151847213Y-96331971D01*
X151847215Y-96331968D01*
X151847219Y-96331966D01*
X151991966Y-96187219D01*
X151991968Y-96187215D01*
X151991971Y-96187213D01*
X152044732Y-96114590D01*
X152112287Y-96021610D01*
X152205220Y-95839219D01*
X152268477Y-95644534D01*
X152300500Y-95442352D01*
X152300500Y-95237648D01*
X152286144Y-95147007D01*
X152268477Y-95035465D01*
X152205218Y-94840776D01*
X152112419Y-94658650D01*
X152112287Y-94658390D01*
X152104556Y-94647749D01*
X151991971Y-94492786D01*
X151847219Y-94348034D01*
X151810930Y-94321669D01*
X151768264Y-94266339D01*
X151762285Y-94196726D01*
X151794890Y-94134931D01*
X151855728Y-94100573D01*
X151870562Y-94098060D01*
X151907483Y-94094091D01*
X152042328Y-94043797D01*
X152042327Y-94043797D01*
X152042331Y-94043796D01*
X152157546Y-93957546D01*
X152243796Y-93842331D01*
X152294091Y-93707483D01*
X152300500Y-93647873D01*
X152300499Y-91952128D01*
X152294091Y-91892517D01*
X152289116Y-91879179D01*
X152243797Y-91757671D01*
X152243793Y-91757664D01*
X152157547Y-91642455D01*
X152157544Y-91642452D01*
X152042335Y-91556206D01*
X152042328Y-91556202D01*
X151907482Y-91505908D01*
X151907483Y-91505908D01*
X151847883Y-91499501D01*
X151847881Y-91499500D01*
X151847873Y-91499500D01*
X151847864Y-91499500D01*
X150152129Y-91499500D01*
X150152123Y-91499501D01*
X150092516Y-91505908D01*
X149957671Y-91556202D01*
X149957664Y-91556206D01*
X149842455Y-91642452D01*
X149842452Y-91642455D01*
X149756206Y-91757664D01*
X149756202Y-91757671D01*
X149705908Y-91892517D01*
X149699501Y-91952116D01*
X149699501Y-91952123D01*
X149699500Y-91952135D01*
X149699500Y-93647870D01*
X149699501Y-93647876D01*
X149705908Y-93707483D01*
X149756202Y-93842328D01*
X149756206Y-93842335D01*
X149842452Y-93957544D01*
X149842455Y-93957547D01*
X149957664Y-94043793D01*
X149957671Y-94043797D01*
X150002618Y-94060561D01*
X150092517Y-94094091D01*
X150129441Y-94098060D01*
X150193989Y-94124796D01*
X150233838Y-94182188D01*
X150236333Y-94252013D01*
X150200681Y-94312102D01*
X150189071Y-94321666D01*
X150152784Y-94348030D01*
X150008028Y-94492786D01*
X149887715Y-94658386D01*
X149794781Y-94840776D01*
X149731522Y-95035465D01*
X149699500Y-95237648D01*
X149699500Y-95442351D01*
X149731522Y-95644534D01*
X149794781Y-95839223D01*
X149887715Y-96021613D01*
X150008028Y-96187213D01*
X150152786Y-96331971D01*
X150307749Y-96444556D01*
X150318390Y-96452287D01*
X150409840Y-96498883D01*
X150411080Y-96499515D01*
X150461876Y-96547490D01*
X150478671Y-96615311D01*
X150456134Y-96681446D01*
X150411080Y-96720485D01*
X150318386Y-96767715D01*
X150152786Y-96888028D01*
X150008035Y-97032779D01*
X150005252Y-97036038D01*
X149946742Y-97074227D01*
X149910967Y-97079500D01*
X133541153Y-97079500D01*
X133386510Y-97110260D01*
X133386502Y-97110262D01*
X133240824Y-97170604D01*
X133240814Y-97170609D01*
X133109711Y-97258210D01*
X133109707Y-97258213D01*
X129101028Y-101266894D01*
X127909711Y-102458211D01*
X127853960Y-102513962D01*
X127798209Y-102569712D01*
X127710609Y-102700814D01*
X127710602Y-102700827D01*
X127650264Y-102846498D01*
X127650261Y-102846510D01*
X127619500Y-103001153D01*
X127619500Y-110674909D01*
X127599815Y-110741948D01*
X127568386Y-110775227D01*
X127473432Y-110844215D01*
X127311716Y-111005931D01*
X127311711Y-111005937D01*
X127208217Y-111148385D01*
X127152887Y-111191051D01*
X127107899Y-111199500D01*
X118754604Y-111199500D01*
X118707155Y-111190062D01*
X118683497Y-111180263D01*
X118683493Y-111180262D01*
X118683488Y-111180260D01*
X118528845Y-111149500D01*
X118528842Y-111149500D01*
X111578843Y-111149500D01*
X111578842Y-111149500D01*
X101352101Y-111149500D01*
X101285062Y-111129815D01*
X101251783Y-111098385D01*
X101148525Y-110956263D01*
X101148286Y-110955934D01*
X100986566Y-110794214D01*
X100801538Y-110659783D01*
X100768225Y-110642809D01*
X100597755Y-110555950D01*
X100380248Y-110485278D01*
X100194812Y-110455908D01*
X100154354Y-110449500D01*
X99925646Y-110449500D01*
X99885188Y-110455908D01*
X99699753Y-110485278D01*
X99699750Y-110485278D01*
X99482244Y-110555950D01*
X99278461Y-110659783D01*
X99212550Y-110707671D01*
X99093434Y-110794214D01*
X99093432Y-110794216D01*
X99093431Y-110794216D01*
X98931716Y-110955931D01*
X98931709Y-110955940D01*
X98870007Y-111040864D01*
X98814677Y-111083530D01*
X98745063Y-111089508D01*
X98683269Y-111056901D01*
X98669372Y-111040863D01*
X98607907Y-110956263D01*
X98607902Y-110956257D01*
X98446242Y-110794597D01*
X98261276Y-110660211D01*
X98057568Y-110556417D01*
X97840124Y-110485765D01*
X97750000Y-110471490D01*
X97750000Y-111459252D01*
X97712292Y-111437482D01*
X97572409Y-111400000D01*
X97427591Y-111400000D01*
X97287708Y-111437482D01*
X97250000Y-111459252D01*
X97250000Y-110471490D01*
X97249999Y-110471490D01*
X97159875Y-110485765D01*
X96942431Y-110556417D01*
X96738719Y-110660213D01*
X96555939Y-110793010D01*
X96490132Y-110816490D01*
X96422079Y-110800664D01*
X96373384Y-110750558D01*
X96366875Y-110736033D01*
X96356296Y-110707669D01*
X96356295Y-110707667D01*
X96356293Y-110707664D01*
X96270047Y-110592455D01*
X96270044Y-110592452D01*
X96154835Y-110506206D01*
X96154828Y-110506202D01*
X96019982Y-110455908D01*
X96019983Y-110455908D01*
X95960383Y-110449501D01*
X95960381Y-110449500D01*
X95960373Y-110449500D01*
X95960364Y-110449500D01*
X93959629Y-110449500D01*
X93959623Y-110449501D01*
X93900016Y-110455908D01*
X93765171Y-110506202D01*
X93765164Y-110506206D01*
X93649955Y-110592452D01*
X93649952Y-110592455D01*
X93563706Y-110707664D01*
X93563702Y-110707671D01*
X93513408Y-110842517D01*
X93507001Y-110902116D01*
X93507000Y-110902135D01*
X93507000Y-111025500D01*
X93487315Y-111092539D01*
X93434511Y-111138294D01*
X93383000Y-111149500D01*
X92471153Y-111149500D01*
X92316510Y-111180260D01*
X92316502Y-111180262D01*
X92301264Y-111186573D01*
X92292845Y-111190061D01*
X92245394Y-111199500D01*
X77844499Y-111199500D01*
X77777460Y-111179815D01*
X77731705Y-111127011D01*
X77720499Y-111075500D01*
X77720499Y-110599998D01*
X77720498Y-110599981D01*
X77709999Y-110497203D01*
X77709998Y-110497200D01*
X77703519Y-110477648D01*
X77654814Y-110330666D01*
X77562712Y-110181344D01*
X77438656Y-110057288D01*
X77289334Y-109965186D01*
X77122797Y-109910001D01*
X77122795Y-109910000D01*
X77020016Y-109899500D01*
X77020009Y-109899500D01*
X76544500Y-109899500D01*
X76477461Y-109879815D01*
X76431706Y-109827011D01*
X76420500Y-109775500D01*
X76420500Y-91762940D01*
X76440185Y-91695901D01*
X76456819Y-91675259D01*
X81795259Y-86336819D01*
X81856582Y-86303334D01*
X81882940Y-86300500D01*
X172575500Y-86300500D01*
X172642539Y-86320185D01*
G37*
%TD.AperFunction*%
%TA.AperFunction,Conductor*%
G36*
X185944204Y-82519685D02*
G01*
X185989959Y-82572489D01*
X186001158Y-82622828D01*
X186092460Y-92300776D01*
X186499481Y-135445089D01*
X186480430Y-135512311D01*
X186459688Y-135537287D01*
X146535645Y-172467028D01*
X146473065Y-172498101D01*
X146451444Y-172500000D01*
X93049578Y-172500000D01*
X92982539Y-172480315D01*
X92964088Y-172465819D01*
X76250476Y-156557682D01*
X89700000Y-156557682D01*
X89700000Y-156762317D01*
X89732009Y-156964417D01*
X89795244Y-157159031D01*
X89888141Y-157341350D01*
X89888147Y-157341359D01*
X89920523Y-157385921D01*
X89920524Y-157385922D01*
X90600000Y-156706446D01*
X90600000Y-156712661D01*
X90627259Y-156814394D01*
X90679920Y-156905606D01*
X90754394Y-156980080D01*
X90845606Y-157032741D01*
X90947339Y-157060000D01*
X90953553Y-157060000D01*
X90274076Y-157739474D01*
X90318650Y-157771859D01*
X90500968Y-157864755D01*
X90695582Y-157927990D01*
X90897683Y-157960000D01*
X91102317Y-157960000D01*
X91304417Y-157927990D01*
X91499031Y-157864755D01*
X91681349Y-157771859D01*
X91725921Y-157739474D01*
X91046447Y-157060000D01*
X91052661Y-157060000D01*
X91154394Y-157032741D01*
X91245606Y-156980080D01*
X91320080Y-156905606D01*
X91372741Y-156814394D01*
X91400000Y-156712661D01*
X91400000Y-156706447D01*
X92079474Y-157385921D01*
X92111859Y-157341349D01*
X92204755Y-157159031D01*
X92267990Y-156964417D01*
X92300000Y-156762317D01*
X92300000Y-156557682D01*
X92267990Y-156355582D01*
X92204755Y-156160968D01*
X92111859Y-155978650D01*
X92079474Y-155934077D01*
X92079474Y-155934076D01*
X91400000Y-156613551D01*
X91400000Y-156607339D01*
X91372741Y-156505606D01*
X91320080Y-156414394D01*
X91245606Y-156339920D01*
X91154394Y-156287259D01*
X91052661Y-156260000D01*
X91046446Y-156260000D01*
X91725922Y-155580524D01*
X91725921Y-155580523D01*
X91681359Y-155548147D01*
X91681350Y-155548141D01*
X91499031Y-155455244D01*
X91304417Y-155392009D01*
X91102317Y-155360000D01*
X90897683Y-155360000D01*
X90695582Y-155392009D01*
X90500968Y-155455244D01*
X90318644Y-155548143D01*
X90274077Y-155580523D01*
X90274077Y-155580524D01*
X90953554Y-156260000D01*
X90947339Y-156260000D01*
X90845606Y-156287259D01*
X90754394Y-156339920D01*
X90679920Y-156414394D01*
X90627259Y-156505606D01*
X90600000Y-156607339D01*
X90600000Y-156613553D01*
X89920524Y-155934077D01*
X89920523Y-155934077D01*
X89888143Y-155978644D01*
X89795244Y-156160968D01*
X89732009Y-156355582D01*
X89700000Y-156557682D01*
X76250476Y-156557682D01*
X51539036Y-133037155D01*
X51504048Y-132976678D01*
X51500533Y-132946113D01*
X51709283Y-111862332D01*
X58279500Y-111862332D01*
X58279500Y-112137667D01*
X58279501Y-112137684D01*
X58315438Y-112410655D01*
X58315439Y-112410660D01*
X58315440Y-112410666D01*
X58329334Y-112462518D01*
X58386704Y-112676630D01*
X58492075Y-112931017D01*
X58492080Y-112931028D01*
X58542091Y-113017648D01*
X58629751Y-113169479D01*
X58629753Y-113169482D01*
X58629754Y-113169483D01*
X58797370Y-113387926D01*
X58797376Y-113387933D01*
X58992066Y-113582623D01*
X58992073Y-113582629D01*
X59039764Y-113619223D01*
X59210521Y-113750249D01*
X59329007Y-113818657D01*
X59448971Y-113887919D01*
X59448987Y-113887927D01*
X59622952Y-113959985D01*
X59677356Y-114003826D01*
X59699421Y-114070120D01*
X59699500Y-114074546D01*
X59699500Y-124075500D01*
X59679815Y-124142539D01*
X59627011Y-124188294D01*
X59575500Y-124199500D01*
X59319999Y-124199500D01*
X59319980Y-124199501D01*
X59217203Y-124210000D01*
X59217200Y-124210001D01*
X59050668Y-124265185D01*
X59050663Y-124265187D01*
X58901342Y-124357289D01*
X58777289Y-124481342D01*
X58685187Y-124630663D01*
X58685185Y-124630668D01*
X58663316Y-124696666D01*
X58630001Y-124797203D01*
X58630001Y-124797204D01*
X58630000Y-124797204D01*
X58619500Y-124899983D01*
X58619500Y-127100001D01*
X58619501Y-127100018D01*
X58630000Y-127202796D01*
X58630001Y-127202799D01*
X58644885Y-127247715D01*
X58685186Y-127369334D01*
X58777288Y-127518656D01*
X58901344Y-127642712D01*
X59050666Y-127734814D01*
X59217203Y-127789999D01*
X59319991Y-127800500D01*
X61520008Y-127800499D01*
X61622797Y-127789999D01*
X61789334Y-127734814D01*
X61938656Y-127642712D01*
X62062712Y-127518656D01*
X62154814Y-127369334D01*
X62209999Y-127202797D01*
X62220500Y-127100009D01*
X62220499Y-125882014D01*
X63700000Y-125882014D01*
X63700000Y-126117985D01*
X63730799Y-126351914D01*
X63791870Y-126579837D01*
X63882160Y-126797819D01*
X63882165Y-126797828D01*
X64000144Y-127002171D01*
X64000145Y-127002172D01*
X64062721Y-127083723D01*
X64898958Y-126247487D01*
X64923978Y-126307890D01*
X64995112Y-126414351D01*
X65085649Y-126504888D01*
X65192110Y-126576022D01*
X65252511Y-126601041D01*
X64416275Y-127437277D01*
X64497827Y-127499854D01*
X64497828Y-127499855D01*
X64702171Y-127617834D01*
X64702180Y-127617839D01*
X64920163Y-127708129D01*
X64920161Y-127708129D01*
X65148085Y-127769200D01*
X65382014Y-127799999D01*
X65382029Y-127800000D01*
X65617971Y-127800000D01*
X65617985Y-127799999D01*
X65851914Y-127769200D01*
X66079837Y-127708129D01*
X66297819Y-127617839D01*
X66297828Y-127617834D01*
X66502181Y-127499850D01*
X66583723Y-127437279D01*
X66583723Y-127437276D01*
X65747487Y-126601041D01*
X65807890Y-126576022D01*
X65914351Y-126504888D01*
X66004888Y-126414351D01*
X66076022Y-126307890D01*
X66101041Y-126247488D01*
X66937276Y-127083723D01*
X66937279Y-127083723D01*
X66999850Y-127002181D01*
X67117834Y-126797828D01*
X67117839Y-126797819D01*
X67208129Y-126579837D01*
X67269200Y-126351914D01*
X67299999Y-126117985D01*
X67300000Y-126117971D01*
X67300000Y-125882028D01*
X67299999Y-125882014D01*
X67269200Y-125648085D01*
X67208129Y-125420162D01*
X67117839Y-125202180D01*
X67117834Y-125202171D01*
X66999855Y-124997828D01*
X66999854Y-124997827D01*
X66937277Y-124916275D01*
X66101041Y-125752511D01*
X66076022Y-125692110D01*
X66004888Y-125585649D01*
X65914351Y-125495112D01*
X65807890Y-125423978D01*
X65747488Y-125398958D01*
X66583723Y-124562721D01*
X66502172Y-124500145D01*
X66502171Y-124500144D01*
X66297828Y-124382165D01*
X66297819Y-124382160D01*
X66079836Y-124291870D01*
X66079838Y-124291870D01*
X65851914Y-124230799D01*
X65617985Y-124200000D01*
X65382014Y-124200000D01*
X65148085Y-124230799D01*
X64920162Y-124291870D01*
X64702180Y-124382160D01*
X64702171Y-124382165D01*
X64497828Y-124500144D01*
X64497818Y-124500150D01*
X64416275Y-124562720D01*
X64416275Y-124562721D01*
X65252512Y-125398958D01*
X65192110Y-125423978D01*
X65085649Y-125495112D01*
X64995112Y-125585649D01*
X64923978Y-125692110D01*
X64898958Y-125752511D01*
X64062721Y-124916275D01*
X64062720Y-124916275D01*
X64000150Y-124997818D01*
X64000144Y-124997828D01*
X63882165Y-125202171D01*
X63882160Y-125202180D01*
X63791870Y-125420162D01*
X63730799Y-125648085D01*
X63700000Y-125882014D01*
X62220499Y-125882014D01*
X62220499Y-124899992D01*
X62209999Y-124797203D01*
X62154814Y-124630666D01*
X62062712Y-124481344D01*
X61938656Y-124357288D01*
X61832596Y-124291870D01*
X61789336Y-124265187D01*
X61789331Y-124265185D01*
X61787862Y-124264698D01*
X61622797Y-124210001D01*
X61622795Y-124210000D01*
X61520016Y-124199500D01*
X61520009Y-124199500D01*
X61424500Y-124199500D01*
X61357461Y-124179815D01*
X61311706Y-124127011D01*
X61300500Y-124075500D01*
X61300500Y-113965588D01*
X61320185Y-113898549D01*
X61362498Y-113858202D01*
X61549479Y-113750249D01*
X61767928Y-113582628D01*
X61962628Y-113387928D01*
X62130249Y-113169479D01*
X62267923Y-112931021D01*
X62373295Y-112676632D01*
X62444560Y-112410666D01*
X62480500Y-112137674D01*
X62480500Y-111862326D01*
X62444560Y-111589334D01*
X62373295Y-111323368D01*
X62267923Y-111068979D01*
X62267921Y-111068976D01*
X62267919Y-111068971D01*
X62202656Y-110955934D01*
X62130249Y-110830521D01*
X62081132Y-110766510D01*
X62008858Y-110672320D01*
X61962629Y-110612073D01*
X61962623Y-110612066D01*
X61950540Y-110599983D01*
X73519500Y-110599983D01*
X73519500Y-113400001D01*
X73519501Y-113400018D01*
X73530000Y-113502796D01*
X73530001Y-113502799D01*
X73568581Y-113619223D01*
X73585186Y-113669334D01*
X73677288Y-113818656D01*
X73801344Y-113942712D01*
X73950666Y-114034814D01*
X74117203Y-114089999D01*
X74219991Y-114100500D01*
X74695500Y-114100499D01*
X74762539Y-114120183D01*
X74808294Y-114172987D01*
X74819500Y-114224499D01*
X74819500Y-118198846D01*
X74850261Y-118353489D01*
X74850264Y-118353501D01*
X74910602Y-118499172D01*
X74910609Y-118499185D01*
X74998210Y-118630288D01*
X74998213Y-118630292D01*
X85798211Y-129430289D01*
X85856216Y-129488294D01*
X85909712Y-129541790D01*
X86039449Y-129628477D01*
X86040821Y-129629394D01*
X86143833Y-129672062D01*
X86186502Y-129689737D01*
X86289431Y-129710211D01*
X86341152Y-129720499D01*
X86341155Y-129720500D01*
X86341157Y-129720500D01*
X86341158Y-129720500D01*
X90410967Y-129720500D01*
X90478006Y-129740185D01*
X90505252Y-129763962D01*
X90508035Y-129767220D01*
X90652786Y-129911971D01*
X90782115Y-130005932D01*
X90818390Y-130032287D01*
X90933354Y-130090864D01*
X91000776Y-130125218D01*
X91000778Y-130125218D01*
X91000781Y-130125220D01*
X91105137Y-130159127D01*
X91195465Y-130188477D01*
X91265061Y-130199500D01*
X91397648Y-130220500D01*
X91397649Y-130220500D01*
X91602351Y-130220500D01*
X91602352Y-130220500D01*
X91804534Y-130188477D01*
X91999219Y-130125220D01*
X92181610Y-130032287D01*
X92291931Y-129952135D01*
X92347213Y-129911971D01*
X92347215Y-129911968D01*
X92347219Y-129911966D01*
X92491966Y-129767219D01*
X92491968Y-129767215D01*
X92491971Y-129767213D01*
X92548259Y-129689738D01*
X92612287Y-129601610D01*
X92705220Y-129419219D01*
X92768477Y-129224534D01*
X92800500Y-129022352D01*
X92800500Y-128817648D01*
X92768477Y-128615466D01*
X92705220Y-128420781D01*
X92705218Y-128420778D01*
X92705218Y-128420776D01*
X92671503Y-128354607D01*
X92612287Y-128238390D01*
X92604556Y-128227749D01*
X92491971Y-128072786D01*
X92347213Y-127928028D01*
X92181613Y-127807715D01*
X92181612Y-127807714D01*
X92181610Y-127807713D01*
X92106024Y-127769200D01*
X91999223Y-127714781D01*
X91804534Y-127651522D01*
X91629995Y-127623878D01*
X91602352Y-127619500D01*
X91397648Y-127619500D01*
X91373329Y-127623351D01*
X91195465Y-127651522D01*
X91000776Y-127714781D01*
X90818386Y-127807715D01*
X90652786Y-127928028D01*
X90508035Y-128072779D01*
X90505252Y-128076038D01*
X90446742Y-128114227D01*
X90410967Y-128119500D01*
X86802940Y-128119500D01*
X86735901Y-128099815D01*
X86715259Y-128083181D01*
X80029760Y-121397682D01*
X82200000Y-121397682D01*
X82200000Y-121602317D01*
X82232009Y-121804417D01*
X82295244Y-121999031D01*
X82388141Y-122181350D01*
X82388147Y-122181359D01*
X82420523Y-122225921D01*
X82420524Y-122225922D01*
X83100000Y-121546446D01*
X83100000Y-121552661D01*
X83127259Y-121654394D01*
X83179920Y-121745606D01*
X83254394Y-121820080D01*
X83345606Y-121872741D01*
X83447339Y-121900000D01*
X83453553Y-121900000D01*
X82774076Y-122579474D01*
X82818650Y-122611859D01*
X83000968Y-122704755D01*
X83195582Y-122767990D01*
X83397683Y-122800000D01*
X83602317Y-122800000D01*
X83804417Y-122767990D01*
X83999031Y-122704755D01*
X84181349Y-122611859D01*
X84225921Y-122579474D01*
X83546447Y-121900000D01*
X83552661Y-121900000D01*
X83654394Y-121872741D01*
X83745606Y-121820080D01*
X83820080Y-121745606D01*
X83872741Y-121654394D01*
X83900000Y-121552661D01*
X83900000Y-121546447D01*
X84579474Y-122225921D01*
X84611859Y-122181349D01*
X84704755Y-121999031D01*
X84767990Y-121804417D01*
X84800000Y-121602317D01*
X84800000Y-121397682D01*
X84767990Y-121195582D01*
X84704755Y-121000968D01*
X84611859Y-120818650D01*
X84579474Y-120774077D01*
X84579474Y-120774076D01*
X83900000Y-121453551D01*
X83900000Y-121447339D01*
X83872741Y-121345606D01*
X83820080Y-121254394D01*
X83745606Y-121179920D01*
X83654394Y-121127259D01*
X83552661Y-121100000D01*
X83546446Y-121100000D01*
X84225922Y-120420524D01*
X84225921Y-120420523D01*
X84181359Y-120388147D01*
X84181350Y-120388141D01*
X83999031Y-120295244D01*
X83804417Y-120232009D01*
X83602317Y-120200000D01*
X83397683Y-120200000D01*
X83195582Y-120232009D01*
X83000968Y-120295244D01*
X82818644Y-120388143D01*
X82774077Y-120420523D01*
X82774077Y-120420524D01*
X83453554Y-121100000D01*
X83447339Y-121100000D01*
X83345606Y-121127259D01*
X83254394Y-121179920D01*
X83179920Y-121254394D01*
X83127259Y-121345606D01*
X83100000Y-121447339D01*
X83100000Y-121453553D01*
X82420524Y-120774077D01*
X82420523Y-120774077D01*
X82388143Y-120818644D01*
X82295244Y-121000968D01*
X82232009Y-121195582D01*
X82200000Y-121397682D01*
X80029760Y-121397682D01*
X76456819Y-117824741D01*
X76423334Y-117763418D01*
X76420500Y-117737060D01*
X76420500Y-114224499D01*
X76440185Y-114157460D01*
X76492989Y-114111705D01*
X76544500Y-114100499D01*
X77020002Y-114100499D01*
X77020008Y-114100499D01*
X77122797Y-114089999D01*
X77289334Y-114034814D01*
X77438656Y-113942712D01*
X77562712Y-113818656D01*
X77654814Y-113669334D01*
X77709999Y-113502797D01*
X77720500Y-113400009D01*
X77720500Y-112924500D01*
X77740185Y-112857461D01*
X77792989Y-112811706D01*
X77844500Y-112800500D01*
X83268060Y-112800500D01*
X83335099Y-112820185D01*
X83380854Y-112872989D01*
X83390798Y-112942147D01*
X83361773Y-113005703D01*
X83355741Y-113012181D01*
X82989711Y-113378211D01*
X82953688Y-113414234D01*
X82878209Y-113489712D01*
X82790609Y-113620814D01*
X82790602Y-113620827D01*
X82730264Y-113766498D01*
X82730261Y-113766510D01*
X82699500Y-113921153D01*
X82699500Y-115410966D01*
X82679815Y-115478005D01*
X82656046Y-115505244D01*
X82652784Y-115508030D01*
X82508028Y-115652786D01*
X82387715Y-115818386D01*
X82294781Y-116000776D01*
X82231522Y-116195465D01*
X82199500Y-116397648D01*
X82199500Y-116602351D01*
X82231522Y-116804534D01*
X82294781Y-116999223D01*
X82387715Y-117181613D01*
X82508028Y-117347213D01*
X82652786Y-117491971D01*
X82807749Y-117604556D01*
X82818390Y-117612287D01*
X82934607Y-117671503D01*
X83000776Y-117705218D01*
X83000778Y-117705218D01*
X83000781Y-117705220D01*
X83105137Y-117739127D01*
X83195465Y-117768477D01*
X83296557Y-117784488D01*
X83397648Y-117800500D01*
X83397649Y-117800500D01*
X83602351Y-117800500D01*
X83602352Y-117800500D01*
X83804534Y-117768477D01*
X83999219Y-117705220D01*
X84181610Y-117612287D01*
X84274590Y-117544732D01*
X84347213Y-117491971D01*
X84347215Y-117491968D01*
X84347219Y-117491966D01*
X84491966Y-117347219D01*
X84491968Y-117347215D01*
X84491971Y-117347213D01*
X84544732Y-117274590D01*
X84612287Y-117181610D01*
X84705220Y-116999219D01*
X84768477Y-116804534D01*
X84800500Y-116602352D01*
X84800500Y-116397648D01*
X84768477Y-116195466D01*
X84705220Y-116000781D01*
X84705218Y-116000778D01*
X84705218Y-116000776D01*
X84671503Y-115934607D01*
X84612287Y-115818390D01*
X84604556Y-115807749D01*
X84491971Y-115652786D01*
X84347215Y-115508030D01*
X84343954Y-115505244D01*
X84305770Y-115446731D01*
X84300500Y-115410966D01*
X84300500Y-114382940D01*
X84320185Y-114315901D01*
X84336819Y-114295259D01*
X85795259Y-112836819D01*
X85856582Y-112803334D01*
X85882940Y-112800500D01*
X87575500Y-112800500D01*
X87642539Y-112820185D01*
X87688294Y-112872989D01*
X87699500Y-112924500D01*
X87699500Y-116578846D01*
X87730261Y-116733489D01*
X87730264Y-116733501D01*
X87790602Y-116879172D01*
X87790609Y-116879185D01*
X87878210Y-117010288D01*
X87878213Y-117010292D01*
X99663181Y-128795259D01*
X99696666Y-128856582D01*
X99699500Y-128882940D01*
X99699500Y-142578846D01*
X99730261Y-142733489D01*
X99730264Y-142733501D01*
X99790602Y-142879172D01*
X99790609Y-142879185D01*
X99878210Y-143010288D01*
X99878213Y-143010292D01*
X114489707Y-157621786D01*
X114489711Y-157621789D01*
X114620814Y-157709390D01*
X114620818Y-157709392D01*
X114620821Y-157709394D01*
X114766503Y-157769738D01*
X114921153Y-157800499D01*
X114921157Y-157800500D01*
X114921158Y-157800500D01*
X135078844Y-157800500D01*
X135078845Y-157800499D01*
X135233497Y-157769737D01*
X135379179Y-157709394D01*
X135510289Y-157621789D01*
X135621789Y-157510289D01*
X135709394Y-157379179D01*
X135769737Y-157233497D01*
X135800500Y-157078842D01*
X135800500Y-147188459D01*
X135820185Y-147121420D01*
X135862498Y-147081073D01*
X136002450Y-147000273D01*
X136189699Y-146856592D01*
X136356592Y-146689699D01*
X136500273Y-146502450D01*
X136618284Y-146298049D01*
X136708606Y-146079993D01*
X136769693Y-145852014D01*
X136800500Y-145618011D01*
X136800500Y-145381989D01*
X136769693Y-145147986D01*
X136708606Y-144920007D01*
X136618284Y-144701951D01*
X136618282Y-144701948D01*
X136618280Y-144701943D01*
X136548434Y-144580968D01*
X136500273Y-144497550D01*
X136441001Y-144420306D01*
X136356593Y-144310302D01*
X136356587Y-144310295D01*
X136189704Y-144143412D01*
X136189697Y-144143406D01*
X136002454Y-143999730D01*
X136002453Y-143999729D01*
X136002450Y-143999727D01*
X135920957Y-143952677D01*
X135798056Y-143881719D01*
X135798045Y-143881714D01*
X135579993Y-143791394D01*
X135352010Y-143730306D01*
X135118020Y-143699501D01*
X135118017Y-143699500D01*
X135118011Y-143699500D01*
X134881989Y-143699500D01*
X134881983Y-143699500D01*
X134881979Y-143699501D01*
X134647989Y-143730306D01*
X134420006Y-143791394D01*
X134201954Y-143881714D01*
X134201943Y-143881719D01*
X133997545Y-143999730D01*
X133810302Y-144143406D01*
X133810295Y-144143412D01*
X133643412Y-144310295D01*
X133643406Y-144310302D01*
X133499730Y-144497545D01*
X133381719Y-144701943D01*
X133381714Y-144701954D01*
X133291394Y-144920006D01*
X133230306Y-145147989D01*
X133199501Y-145381979D01*
X133199500Y-145381995D01*
X133199500Y-145618004D01*
X133199501Y-145618020D01*
X133225879Y-145818386D01*
X133230307Y-145852014D01*
X133237327Y-145878213D01*
X133291394Y-146079993D01*
X133381714Y-146298045D01*
X133381719Y-146298056D01*
X133452677Y-146420957D01*
X133499727Y-146502450D01*
X133499729Y-146502453D01*
X133499730Y-146502454D01*
X133643406Y-146689697D01*
X133643412Y-146689704D01*
X133810295Y-146856587D01*
X133810302Y-146856593D01*
X133997548Y-147000272D01*
X133997550Y-147000273D01*
X134137501Y-147081073D01*
X134185715Y-147131638D01*
X134199500Y-147188459D01*
X134199500Y-156075500D01*
X134179815Y-156142539D01*
X134127011Y-156188294D01*
X134075500Y-156199500D01*
X115382940Y-156199500D01*
X115315901Y-156179815D01*
X115295259Y-156163181D01*
X104109760Y-144977682D01*
X108700000Y-144977682D01*
X108700000Y-145182317D01*
X108732009Y-145384417D01*
X108795244Y-145579031D01*
X108888141Y-145761350D01*
X108888147Y-145761359D01*
X108920523Y-145805921D01*
X108920524Y-145805922D01*
X109600000Y-145126446D01*
X109600000Y-145132661D01*
X109627259Y-145234394D01*
X109679920Y-145325606D01*
X109754394Y-145400080D01*
X109845606Y-145452741D01*
X109947339Y-145480000D01*
X109953553Y-145480000D01*
X109274076Y-146159474D01*
X109318650Y-146191859D01*
X109500968Y-146284755D01*
X109695582Y-146347990D01*
X109897683Y-146380000D01*
X110102317Y-146380000D01*
X110304417Y-146347990D01*
X110499031Y-146284755D01*
X110681349Y-146191859D01*
X110725921Y-146159474D01*
X110046447Y-145480000D01*
X110052661Y-145480000D01*
X110154394Y-145452741D01*
X110245606Y-145400080D01*
X110320080Y-145325606D01*
X110372741Y-145234394D01*
X110400000Y-145132661D01*
X110400000Y-145126447D01*
X111079474Y-145805921D01*
X111111859Y-145761349D01*
X111204755Y-145579031D01*
X111267990Y-145384417D01*
X111300000Y-145182317D01*
X111300000Y-144977682D01*
X111267990Y-144775582D01*
X111204755Y-144580968D01*
X111111859Y-144398650D01*
X111079474Y-144354077D01*
X111079474Y-144354076D01*
X110400000Y-145033551D01*
X110400000Y-145027339D01*
X110372741Y-144925606D01*
X110320080Y-144834394D01*
X110245606Y-144759920D01*
X110154394Y-144707259D01*
X110052661Y-144680000D01*
X110046446Y-144680000D01*
X110725922Y-144000524D01*
X110725921Y-144000523D01*
X110681359Y-143968147D01*
X110681350Y-143968141D01*
X110499031Y-143875244D01*
X110304417Y-143812009D01*
X110102317Y-143780000D01*
X109897683Y-143780000D01*
X109695582Y-143812009D01*
X109500968Y-143875244D01*
X109318644Y-143968143D01*
X109274077Y-144000523D01*
X109274077Y-144000524D01*
X109953554Y-144680000D01*
X109947339Y-144680000D01*
X109845606Y-144707259D01*
X109754394Y-144759920D01*
X109679920Y-144834394D01*
X109627259Y-144925606D01*
X109600000Y-145027339D01*
X109600000Y-145033553D01*
X108920524Y-144354077D01*
X108920523Y-144354077D01*
X108888143Y-144398644D01*
X108795244Y-144580968D01*
X108732009Y-144775582D01*
X108700000Y-144977682D01*
X104109760Y-144977682D01*
X101336819Y-142204741D01*
X101303334Y-142143418D01*
X101300500Y-142117060D01*
X101300500Y-128421158D01*
X101290445Y-128370604D01*
X101290445Y-128370603D01*
X101269739Y-128266510D01*
X101269738Y-128266503D01*
X101209394Y-128120821D01*
X101209392Y-128120818D01*
X101209390Y-128120814D01*
X101121789Y-127989711D01*
X101121786Y-127989707D01*
X94529761Y-121397682D01*
X107200000Y-121397682D01*
X107200000Y-121602317D01*
X107232009Y-121804417D01*
X107295244Y-121999031D01*
X107388141Y-122181350D01*
X107388147Y-122181359D01*
X107420523Y-122225921D01*
X107420524Y-122225922D01*
X108100000Y-121546446D01*
X108100000Y-121552661D01*
X108127259Y-121654394D01*
X108179920Y-121745606D01*
X108254394Y-121820080D01*
X108345606Y-121872741D01*
X108447339Y-121900000D01*
X108453553Y-121900000D01*
X107774076Y-122579474D01*
X107818650Y-122611859D01*
X108000968Y-122704755D01*
X108195582Y-122767990D01*
X108397683Y-122800000D01*
X108602317Y-122800000D01*
X108804417Y-122767990D01*
X108999031Y-122704755D01*
X109181349Y-122611859D01*
X109225921Y-122579474D01*
X108546447Y-121900000D01*
X108552661Y-121900000D01*
X108654394Y-121872741D01*
X108745606Y-121820080D01*
X108820080Y-121745606D01*
X108872741Y-121654394D01*
X108900000Y-121552661D01*
X108900000Y-121546447D01*
X109579474Y-122225921D01*
X109611859Y-122181349D01*
X109704755Y-121999031D01*
X109767990Y-121804417D01*
X109800000Y-121602317D01*
X109800000Y-121397682D01*
X109767990Y-121195582D01*
X109704755Y-121000968D01*
X109644850Y-120883398D01*
X109611859Y-120818650D01*
X109579474Y-120774077D01*
X109579474Y-120774076D01*
X108900000Y-121453551D01*
X108900000Y-121447339D01*
X108872741Y-121345606D01*
X108820080Y-121254394D01*
X108745606Y-121179920D01*
X108654394Y-121127259D01*
X108552661Y-121100000D01*
X108546446Y-121100000D01*
X109225922Y-120420524D01*
X109225921Y-120420523D01*
X109181359Y-120388147D01*
X109181350Y-120388141D01*
X108999031Y-120295244D01*
X108804417Y-120232009D01*
X108602317Y-120200000D01*
X108397683Y-120200000D01*
X108195582Y-120232009D01*
X108000968Y-120295244D01*
X107818644Y-120388143D01*
X107774077Y-120420523D01*
X107774077Y-120420524D01*
X108453554Y-121100000D01*
X108447339Y-121100000D01*
X108345606Y-121127259D01*
X108254394Y-121179920D01*
X108179920Y-121254394D01*
X108127259Y-121345606D01*
X108100000Y-121447339D01*
X108100000Y-121453553D01*
X107420524Y-120774077D01*
X107420523Y-120774077D01*
X107388143Y-120818644D01*
X107295244Y-121000968D01*
X107232009Y-121195582D01*
X107200000Y-121397682D01*
X94529761Y-121397682D01*
X89336819Y-116204740D01*
X89303334Y-116143417D01*
X89300500Y-116117059D01*
X89300500Y-112924500D01*
X89320185Y-112857461D01*
X89372989Y-112811706D01*
X89424500Y-112800500D01*
X92578844Y-112800500D01*
X92578845Y-112800499D01*
X92655152Y-112785320D01*
X92733488Y-112769739D01*
X92733489Y-112769738D01*
X92733497Y-112769737D01*
X92757155Y-112759937D01*
X92804604Y-112750500D01*
X93383001Y-112750500D01*
X93450040Y-112770185D01*
X93495795Y-112822989D01*
X93507001Y-112874500D01*
X93507001Y-112997876D01*
X93513408Y-113057483D01*
X93563702Y-113192328D01*
X93563706Y-113192335D01*
X93649952Y-113307544D01*
X93649955Y-113307547D01*
X93765164Y-113393793D01*
X93765171Y-113393797D01*
X93900017Y-113444091D01*
X93900016Y-113444091D01*
X93906944Y-113444835D01*
X93959627Y-113450500D01*
X95960372Y-113450499D01*
X96019983Y-113444091D01*
X96154831Y-113393796D01*
X96270046Y-113307546D01*
X96356296Y-113192331D01*
X96366872Y-113163974D01*
X96408740Y-113108041D01*
X96474204Y-113083622D01*
X96542477Y-113098472D01*
X96555940Y-113106988D01*
X96738723Y-113239788D01*
X96942429Y-113343582D01*
X97159871Y-113414234D01*
X97250000Y-113428509D01*
X97250000Y-112440747D01*
X97287708Y-112462518D01*
X97427591Y-112500000D01*
X97572409Y-112500000D01*
X97712292Y-112462518D01*
X97750000Y-112440747D01*
X97750000Y-113428508D01*
X97840128Y-113414234D01*
X98057570Y-113343582D01*
X98261276Y-113239788D01*
X98446242Y-113105402D01*
X98607905Y-112943739D01*
X98669371Y-112859137D01*
X98724701Y-112816470D01*
X98794314Y-112810491D01*
X98856109Y-112843096D01*
X98870007Y-112859134D01*
X98931714Y-112944066D01*
X99093434Y-113105786D01*
X99278462Y-113240217D01*
X99376591Y-113290216D01*
X99482244Y-113344049D01*
X99699751Y-113414721D01*
X99699752Y-113414721D01*
X99699755Y-113414722D01*
X99925646Y-113450500D01*
X99925647Y-113450500D01*
X100154353Y-113450500D01*
X100154354Y-113450500D01*
X100380245Y-113414722D01*
X100380248Y-113414721D01*
X100380249Y-113414721D01*
X100597755Y-113344049D01*
X100597755Y-113344048D01*
X100597758Y-113344048D01*
X100801538Y-113240217D01*
X100986566Y-113105786D01*
X101148286Y-112944066D01*
X101251783Y-112801615D01*
X101307113Y-112758949D01*
X101352101Y-112750500D01*
X109268060Y-112750500D01*
X109335099Y-112770185D01*
X109380854Y-112822989D01*
X109390798Y-112892147D01*
X109361773Y-112955703D01*
X109355741Y-112962181D01*
X107989711Y-114328211D01*
X107934982Y-114382940D01*
X107878209Y-114439712D01*
X107790609Y-114570814D01*
X107790602Y-114570827D01*
X107730264Y-114716498D01*
X107730261Y-114716510D01*
X107699500Y-114871153D01*
X107699500Y-115410966D01*
X107679815Y-115478005D01*
X107656046Y-115505244D01*
X107652784Y-115508030D01*
X107508028Y-115652786D01*
X107387715Y-115818386D01*
X107294781Y-116000776D01*
X107231522Y-116195465D01*
X107199500Y-116397648D01*
X107199500Y-116602351D01*
X107231522Y-116804534D01*
X107294781Y-116999223D01*
X107387715Y-117181613D01*
X107508028Y-117347213D01*
X107652786Y-117491971D01*
X107807749Y-117604556D01*
X107818390Y-117612287D01*
X107934607Y-117671503D01*
X108000776Y-117705218D01*
X108000778Y-117705218D01*
X108000781Y-117705220D01*
X108105137Y-117739127D01*
X108195465Y-117768477D01*
X108296557Y-117784488D01*
X108397648Y-117800500D01*
X108397649Y-117800500D01*
X108602351Y-117800500D01*
X108602352Y-117800500D01*
X108804534Y-117768477D01*
X108999219Y-117705220D01*
X109181610Y-117612287D01*
X109274590Y-117544732D01*
X109347213Y-117491971D01*
X109347215Y-117491968D01*
X109347219Y-117491966D01*
X109491966Y-117347219D01*
X109491968Y-117347215D01*
X109491971Y-117347213D01*
X109544732Y-117274590D01*
X109612287Y-117181610D01*
X109705220Y-116999219D01*
X109768477Y-116804534D01*
X109800500Y-116602352D01*
X109800500Y-116397648D01*
X109768477Y-116195466D01*
X109705220Y-116000781D01*
X109705218Y-116000778D01*
X109705218Y-116000776D01*
X109671503Y-115934607D01*
X109612287Y-115818390D01*
X109604556Y-115807749D01*
X109491971Y-115652786D01*
X109347215Y-115508030D01*
X109343954Y-115505244D01*
X109343707Y-115504866D01*
X109343297Y-115504679D01*
X109324615Y-115475609D01*
X109305770Y-115446731D01*
X109305684Y-115446152D01*
X109305523Y-115445901D01*
X109300500Y-115410966D01*
X109300500Y-115332940D01*
X109320185Y-115265901D01*
X109336819Y-115245259D01*
X111795259Y-112786819D01*
X111856582Y-112753334D01*
X111882940Y-112750500D01*
X118195394Y-112750500D01*
X118242845Y-112759938D01*
X118266503Y-112769738D01*
X118421153Y-112800499D01*
X118421157Y-112800500D01*
X118421158Y-112800500D01*
X121768060Y-112800500D01*
X121835099Y-112820185D01*
X121880854Y-112872989D01*
X121890798Y-112942147D01*
X121861773Y-113005703D01*
X121855741Y-113012181D01*
X120989711Y-113878211D01*
X120946769Y-113921153D01*
X120878209Y-113989712D01*
X120790609Y-114120814D01*
X120790602Y-114120827D01*
X120730264Y-114266498D01*
X120730261Y-114266510D01*
X120699500Y-114421153D01*
X120699500Y-115948979D01*
X120679815Y-116016018D01*
X120635731Y-116054529D01*
X120636813Y-116056283D01*
X120630667Y-116060073D01*
X120630666Y-116060074D01*
X120538278Y-116117059D01*
X120481342Y-116152177D01*
X120357289Y-116276230D01*
X120265187Y-116425551D01*
X120265186Y-116425554D01*
X120210001Y-116592091D01*
X120210001Y-116592092D01*
X120210000Y-116592092D01*
X120199500Y-116694871D01*
X120199500Y-117894889D01*
X120199501Y-117894906D01*
X120210000Y-117997684D01*
X120210001Y-117997687D01*
X120265185Y-118164219D01*
X120265186Y-118164222D01*
X120357288Y-118313544D01*
X120481344Y-118437600D01*
X120630666Y-118529702D01*
X120692440Y-118550172D01*
X120749884Y-118589943D01*
X120776707Y-118654459D01*
X120777053Y-118677607D01*
X120774077Y-118715412D01*
X121453554Y-119394888D01*
X121447339Y-119394888D01*
X121345606Y-119422147D01*
X121254394Y-119474808D01*
X121179920Y-119549282D01*
X121127259Y-119640494D01*
X121100000Y-119742227D01*
X121100000Y-119748441D01*
X120420524Y-119068965D01*
X120420523Y-119068965D01*
X120388143Y-119113532D01*
X120295244Y-119295856D01*
X120232009Y-119490470D01*
X120200000Y-119692570D01*
X120200000Y-119897205D01*
X120232009Y-120099305D01*
X120295244Y-120293919D01*
X120388141Y-120476238D01*
X120388147Y-120476247D01*
X120420523Y-120520809D01*
X120420524Y-120520810D01*
X121100000Y-119841334D01*
X121100000Y-119847549D01*
X121127259Y-119949282D01*
X121179920Y-120040494D01*
X121254394Y-120114968D01*
X121345606Y-120167629D01*
X121447339Y-120194888D01*
X121453553Y-120194888D01*
X120774076Y-120874362D01*
X120818650Y-120906747D01*
X121000968Y-120999643D01*
X121195582Y-121062878D01*
X121397683Y-121094888D01*
X121602317Y-121094888D01*
X121804417Y-121062878D01*
X121999031Y-120999643D01*
X122181349Y-120906747D01*
X122225921Y-120874362D01*
X121546447Y-120194888D01*
X121552661Y-120194888D01*
X121654394Y-120167629D01*
X121745606Y-120114968D01*
X121820080Y-120040494D01*
X121872741Y-119949282D01*
X121900000Y-119847549D01*
X121900000Y-119841336D01*
X122579474Y-120520810D01*
X122579474Y-120520809D01*
X122611859Y-120476237D01*
X122704755Y-120293919D01*
X122767990Y-120099305D01*
X122800000Y-119897205D01*
X122800000Y-119692570D01*
X122767990Y-119490470D01*
X122704755Y-119295856D01*
X122611859Y-119113538D01*
X122579474Y-119068965D01*
X122579474Y-119068964D01*
X121900000Y-119748439D01*
X121900000Y-119742227D01*
X121872741Y-119640494D01*
X121820080Y-119549282D01*
X121745606Y-119474808D01*
X121654394Y-119422147D01*
X121552661Y-119394888D01*
X121546446Y-119394888D01*
X122225921Y-118715413D01*
X122222946Y-118677607D01*
X122237310Y-118609229D01*
X122286361Y-118559472D01*
X122307555Y-118550173D01*
X122369334Y-118529702D01*
X122518656Y-118437600D01*
X122642712Y-118313544D01*
X122734814Y-118164222D01*
X122789999Y-117997685D01*
X122800500Y-117894897D01*
X122800499Y-116694880D01*
X122789999Y-116592091D01*
X122734814Y-116425554D01*
X122642712Y-116276232D01*
X122518656Y-116152176D01*
X122369334Y-116060074D01*
X122369332Y-116060073D01*
X122363187Y-116056283D01*
X122364290Y-116054493D01*
X122319649Y-116015178D01*
X122300500Y-115948979D01*
X122300500Y-114882940D01*
X122320185Y-114815901D01*
X122336819Y-114795259D01*
X124295259Y-112836819D01*
X124356582Y-112803334D01*
X124382940Y-112800500D01*
X127107899Y-112800500D01*
X127174938Y-112820185D01*
X127208217Y-112851615D01*
X127275387Y-112944067D01*
X127311714Y-112994066D01*
X127473434Y-113155786D01*
X127658462Y-113290217D01*
X127789904Y-113357190D01*
X127862244Y-113394049D01*
X128079751Y-113464721D01*
X128079752Y-113464721D01*
X128079755Y-113464722D01*
X128305646Y-113500500D01*
X128305647Y-113500500D01*
X128534353Y-113500500D01*
X128534354Y-113500500D01*
X128760245Y-113464722D01*
X128760248Y-113464721D01*
X128760249Y-113464721D01*
X128977755Y-113394049D01*
X128977755Y-113394048D01*
X128977758Y-113394048D01*
X129181538Y-113290217D01*
X129366566Y-113155786D01*
X129528286Y-112994066D01*
X129589683Y-112909559D01*
X129645012Y-112866896D01*
X129714625Y-112860917D01*
X129776420Y-112893523D01*
X129790314Y-112909556D01*
X129851714Y-112994066D01*
X130013434Y-113155786D01*
X130198462Y-113290217D01*
X130329904Y-113357190D01*
X130402244Y-113394049D01*
X130619751Y-113464721D01*
X130619752Y-113464721D01*
X130619755Y-113464722D01*
X130845646Y-113500500D01*
X130845647Y-113500500D01*
X131074353Y-113500500D01*
X131074354Y-113500500D01*
X131300245Y-113464722D01*
X131300248Y-113464721D01*
X131300249Y-113464721D01*
X131517755Y-113394049D01*
X131517755Y-113394048D01*
X131517758Y-113394048D01*
X131721538Y-113290217D01*
X131904663Y-113157168D01*
X131970465Y-113133690D01*
X132038519Y-113149515D01*
X132087214Y-113199621D01*
X132093726Y-113214153D01*
X132104144Y-113242083D01*
X132104149Y-113242093D01*
X132190309Y-113357187D01*
X132190312Y-113357190D01*
X132305406Y-113443350D01*
X132305413Y-113443354D01*
X132440120Y-113493596D01*
X132440127Y-113493598D01*
X132499655Y-113499999D01*
X132499672Y-113500000D01*
X133250000Y-113500000D01*
X133250000Y-112490747D01*
X133287708Y-112512518D01*
X133427591Y-112550000D01*
X133572409Y-112550000D01*
X133712292Y-112512518D01*
X133750000Y-112490747D01*
X133750000Y-113500000D01*
X134500328Y-113500000D01*
X134500344Y-113499999D01*
X134559872Y-113493598D01*
X134559879Y-113493596D01*
X134694586Y-113443354D01*
X134694593Y-113443350D01*
X134809687Y-113357190D01*
X134809690Y-113357187D01*
X134895850Y-113242093D01*
X134895854Y-113242086D01*
X134946096Y-113107379D01*
X134946098Y-113107372D01*
X134952499Y-113047844D01*
X134952500Y-113047827D01*
X134952500Y-112250000D01*
X133990748Y-112250000D01*
X134012518Y-112212292D01*
X134050000Y-112072409D01*
X134050000Y-111927591D01*
X134012518Y-111787708D01*
X133990748Y-111750000D01*
X134952500Y-111750000D01*
X134952500Y-110952172D01*
X134952499Y-110952155D01*
X134946098Y-110892627D01*
X134946096Y-110892620D01*
X134895854Y-110757913D01*
X134895850Y-110757906D01*
X134809690Y-110642812D01*
X134809687Y-110642809D01*
X134694593Y-110556649D01*
X134694586Y-110556645D01*
X134559879Y-110506403D01*
X134559872Y-110506401D01*
X134500344Y-110500000D01*
X133750000Y-110500000D01*
X133750000Y-111509252D01*
X133712292Y-111487482D01*
X133572409Y-111450000D01*
X133427591Y-111450000D01*
X133287708Y-111487482D01*
X133250000Y-111509252D01*
X133250000Y-110500000D01*
X133078939Y-110500000D01*
X133011900Y-110480315D01*
X132966145Y-110427511D01*
X132956201Y-110358353D01*
X132985226Y-110294797D01*
X132991258Y-110288319D01*
X133098234Y-110181344D01*
X133942759Y-109336819D01*
X134004082Y-109303334D01*
X134030440Y-109300500D01*
X139117060Y-109300500D01*
X139184099Y-109320185D01*
X139204741Y-109336819D01*
X141163181Y-111295259D01*
X141196666Y-111356582D01*
X141199500Y-111382940D01*
X141199500Y-115948979D01*
X141179815Y-116016018D01*
X141135731Y-116054529D01*
X141136813Y-116056283D01*
X141130667Y-116060073D01*
X141130666Y-116060074D01*
X141038278Y-116117059D01*
X140981342Y-116152177D01*
X140857289Y-116276230D01*
X140765187Y-116425551D01*
X140765186Y-116425554D01*
X140710001Y-116592091D01*
X140710001Y-116592092D01*
X140710000Y-116592092D01*
X140699500Y-116694871D01*
X140699500Y-117894889D01*
X140699501Y-117894906D01*
X140710000Y-117997684D01*
X140710001Y-117997687D01*
X140765185Y-118164219D01*
X140765186Y-118164222D01*
X140857288Y-118313544D01*
X140981344Y-118437600D01*
X141130666Y-118529702D01*
X141192440Y-118550172D01*
X141249884Y-118589943D01*
X141276707Y-118654459D01*
X141277053Y-118677607D01*
X141274077Y-118715412D01*
X141953554Y-119394888D01*
X141947339Y-119394888D01*
X141845606Y-119422147D01*
X141754394Y-119474808D01*
X141679920Y-119549282D01*
X141627259Y-119640494D01*
X141600000Y-119742227D01*
X141600000Y-119748441D01*
X140920524Y-119068965D01*
X140920523Y-119068965D01*
X140888143Y-119113532D01*
X140795244Y-119295856D01*
X140732009Y-119490470D01*
X140700000Y-119692570D01*
X140700000Y-119897205D01*
X140732009Y-120099305D01*
X140795244Y-120293919D01*
X140888141Y-120476238D01*
X140888147Y-120476247D01*
X140920523Y-120520809D01*
X140920524Y-120520810D01*
X141600000Y-119841334D01*
X141600000Y-119847549D01*
X141627259Y-119949282D01*
X141679920Y-120040494D01*
X141754394Y-120114968D01*
X141845606Y-120167629D01*
X141947339Y-120194888D01*
X141953553Y-120194888D01*
X141274076Y-120874362D01*
X141318650Y-120906747D01*
X141500968Y-120999643D01*
X141695582Y-121062878D01*
X141897683Y-121094888D01*
X142102317Y-121094888D01*
X142304417Y-121062878D01*
X142499031Y-120999643D01*
X142681349Y-120906747D01*
X142725921Y-120874362D01*
X142046447Y-120194888D01*
X142052661Y-120194888D01*
X142154394Y-120167629D01*
X142245606Y-120114968D01*
X142320080Y-120040494D01*
X142372741Y-119949282D01*
X142400000Y-119847549D01*
X142400000Y-119841336D01*
X143079474Y-120520810D01*
X143079474Y-120520809D01*
X143111859Y-120476237D01*
X143204755Y-120293919D01*
X143267990Y-120099305D01*
X143300000Y-119897205D01*
X143300000Y-119692570D01*
X143267990Y-119490470D01*
X143204755Y-119295856D01*
X143111859Y-119113538D01*
X143079474Y-119068965D01*
X143079474Y-119068964D01*
X142400000Y-119748439D01*
X142400000Y-119742227D01*
X142372741Y-119640494D01*
X142320080Y-119549282D01*
X142245606Y-119474808D01*
X142154394Y-119422147D01*
X142052661Y-119394888D01*
X142046446Y-119394888D01*
X142725921Y-118715413D01*
X142722946Y-118677607D01*
X142737310Y-118609229D01*
X142786361Y-118559472D01*
X142807555Y-118550173D01*
X142869334Y-118529702D01*
X143018656Y-118437600D01*
X143142712Y-118313544D01*
X143234814Y-118164222D01*
X143289999Y-117997685D01*
X143300500Y-117894897D01*
X143300499Y-116694880D01*
X143289999Y-116592091D01*
X143234814Y-116425554D01*
X143142712Y-116276232D01*
X143018656Y-116152176D01*
X142869334Y-116060074D01*
X142869332Y-116060073D01*
X142863187Y-116056283D01*
X142864290Y-116054493D01*
X142819649Y-116015178D01*
X142800500Y-115948979D01*
X142800500Y-110921155D01*
X142800499Y-110921153D01*
X142775249Y-110794214D01*
X142769737Y-110766503D01*
X142766176Y-110757906D01*
X142709397Y-110620827D01*
X142709390Y-110620814D01*
X142621790Y-110489712D01*
X142581578Y-110449500D01*
X142510289Y-110378211D01*
X141284362Y-109152284D01*
X140010292Y-107878213D01*
X140010288Y-107878210D01*
X139879185Y-107790609D01*
X139879172Y-107790602D01*
X139733501Y-107730264D01*
X139733489Y-107730261D01*
X139578845Y-107699500D01*
X139578842Y-107699500D01*
X133726342Y-107699500D01*
X133568658Y-107699500D01*
X133568655Y-107699500D01*
X133414010Y-107730261D01*
X133413998Y-107730264D01*
X133268327Y-107790602D01*
X133268314Y-107790609D01*
X133137211Y-107878210D01*
X133137207Y-107878213D01*
X131117036Y-109898386D01*
X130449711Y-110565711D01*
X130437035Y-110578386D01*
X130430861Y-110584560D01*
X130399479Y-110607359D01*
X130198461Y-110709783D01*
X130120394Y-110766503D01*
X130013434Y-110844214D01*
X130013432Y-110844216D01*
X130013431Y-110844216D01*
X129851715Y-111005932D01*
X129790318Y-111090438D01*
X129734987Y-111133103D01*
X129665374Y-111139082D01*
X129603579Y-111106476D01*
X129589682Y-111090438D01*
X129553663Y-111040863D01*
X129528286Y-111005934D01*
X129366566Y-110844214D01*
X129271613Y-110775226D01*
X129228949Y-110719896D01*
X129220500Y-110674909D01*
X129220500Y-103462940D01*
X129240185Y-103395901D01*
X129256819Y-103375259D01*
X133915259Y-98716819D01*
X133976582Y-98683334D01*
X134002940Y-98680500D01*
X149910967Y-98680500D01*
X149978006Y-98700185D01*
X150005252Y-98723962D01*
X150008035Y-98727220D01*
X150152786Y-98871971D01*
X150318388Y-98992286D01*
X150386153Y-99026814D01*
X150388061Y-99028200D01*
X150389286Y-99028467D01*
X150417540Y-99049618D01*
X150434738Y-99066816D01*
X150468223Y-99128139D01*
X150463239Y-99197831D01*
X150421367Y-99253764D01*
X150403353Y-99264981D01*
X150318652Y-99308138D01*
X150153105Y-99428417D01*
X150153104Y-99428417D01*
X150008417Y-99573104D01*
X150008417Y-99573105D01*
X149888140Y-99738650D01*
X149795244Y-99920970D01*
X149732009Y-100115586D01*
X149723391Y-100170000D01*
X150566988Y-100170000D01*
X150534075Y-100227007D01*
X150500000Y-100354174D01*
X150500000Y-100485826D01*
X150534075Y-100612993D01*
X150566988Y-100670000D01*
X149723391Y-100670000D01*
X149732009Y-100724413D01*
X149795244Y-100919029D01*
X149888140Y-101101349D01*
X150008417Y-101266894D01*
X150008417Y-101266895D01*
X150153104Y-101411582D01*
X150318652Y-101531861D01*
X150411628Y-101579234D01*
X150462425Y-101627208D01*
X150479220Y-101695029D01*
X150456683Y-101761164D01*
X150411630Y-101800203D01*
X150318388Y-101847713D01*
X150152786Y-101968028D01*
X150008035Y-102112779D01*
X150005252Y-102116038D01*
X149946742Y-102154227D01*
X149910967Y-102159500D01*
X148961154Y-102159500D01*
X148806509Y-102190261D01*
X148806497Y-102190264D01*
X148763832Y-102207936D01*
X148763833Y-102207937D01*
X148660823Y-102250604D01*
X148660814Y-102250609D01*
X148529712Y-102338209D01*
X148529711Y-102338211D01*
X148529710Y-102338212D01*
X145989711Y-104878211D01*
X145933960Y-104933962D01*
X145878209Y-104989712D01*
X145790609Y-105120814D01*
X145790602Y-105120827D01*
X145730264Y-105266498D01*
X145730261Y-105266510D01*
X145699500Y-105421153D01*
X145699500Y-119617060D01*
X145679815Y-119684099D01*
X145663181Y-119704741D01*
X140704741Y-124663181D01*
X140643418Y-124696666D01*
X140617060Y-124699500D01*
X121921153Y-124699500D01*
X121766510Y-124730260D01*
X121766502Y-124730262D01*
X121620824Y-124790604D01*
X121620814Y-124790609D01*
X121489711Y-124878210D01*
X121489707Y-124878213D01*
X118750088Y-127617834D01*
X117909711Y-128458211D01*
X117853960Y-128513962D01*
X117798209Y-128569712D01*
X117710609Y-128700814D01*
X117710602Y-128700827D01*
X117650264Y-128846498D01*
X117650261Y-128846510D01*
X117619500Y-129001153D01*
X117619500Y-129375500D01*
X117599815Y-129442539D01*
X117547011Y-129488294D01*
X117495502Y-129499500D01*
X117419630Y-129499500D01*
X117419623Y-129499501D01*
X117360016Y-129505908D01*
X117225171Y-129556202D01*
X117225164Y-129556206D01*
X117109955Y-129642452D01*
X117109952Y-129642455D01*
X117023706Y-129757664D01*
X117023702Y-129757671D01*
X116973408Y-129892517D01*
X116967001Y-129952116D01*
X116967000Y-129952135D01*
X116967000Y-130075500D01*
X116947315Y-130142539D01*
X116894511Y-130188294D01*
X116843000Y-130199500D01*
X113841155Y-130199500D01*
X113686508Y-130230261D01*
X113686498Y-130230264D01*
X113540827Y-130290602D01*
X113540814Y-130290609D01*
X113409711Y-130378210D01*
X113409707Y-130378213D01*
X110204022Y-133583898D01*
X110142699Y-133617383D01*
X110106619Y-133619835D01*
X110102359Y-133619500D01*
X110102352Y-133619500D01*
X109897648Y-133619500D01*
X109873329Y-133623351D01*
X109695465Y-133651522D01*
X109500776Y-133714781D01*
X109318386Y-133807715D01*
X109152786Y-133928028D01*
X109008028Y-134072786D01*
X108887715Y-134238386D01*
X108794781Y-134420776D01*
X108731522Y-134615465D01*
X108699500Y-134817648D01*
X108699500Y-135022351D01*
X108731522Y-135224534D01*
X108794781Y-135419223D01*
X108887715Y-135601613D01*
X109008028Y-135767213D01*
X109152786Y-135911971D01*
X109307749Y-136024556D01*
X109318390Y-136032287D01*
X109434607Y-136091503D01*
X109500776Y-136125218D01*
X109500778Y-136125218D01*
X109500781Y-136125220D01*
X109605137Y-136159127D01*
X109695465Y-136188477D01*
X109796557Y-136204488D01*
X109897648Y-136220500D01*
X109897649Y-136220500D01*
X110102351Y-136220500D01*
X110102352Y-136220500D01*
X110304534Y-136188477D01*
X110499219Y-136125220D01*
X110681610Y-136032287D01*
X110774590Y-135964732D01*
X110847213Y-135911971D01*
X110847215Y-135911968D01*
X110847219Y-135911966D01*
X110991966Y-135767219D01*
X110991968Y-135767215D01*
X110991971Y-135767213D01*
X111044732Y-135694590D01*
X111112287Y-135601610D01*
X111205220Y-135419219D01*
X111268477Y-135224534D01*
X111300500Y-135022352D01*
X111300500Y-134817648D01*
X111300499Y-134817644D01*
X111300165Y-134813404D01*
X111314519Y-134745024D01*
X111336097Y-134715979D01*
X114215259Y-131836819D01*
X114276582Y-131803334D01*
X114302940Y-131800500D01*
X116843001Y-131800500D01*
X116910040Y-131820185D01*
X116955795Y-131872989D01*
X116967001Y-131924500D01*
X116967001Y-132047876D01*
X116973408Y-132107483D01*
X117023702Y-132242328D01*
X117023706Y-132242335D01*
X117109952Y-132357544D01*
X117109955Y-132357547D01*
X117225164Y-132443793D01*
X117225171Y-132443797D01*
X117360017Y-132494091D01*
X117360016Y-132494091D01*
X117366944Y-132494835D01*
X117419627Y-132500500D01*
X119420372Y-132500499D01*
X119479983Y-132494091D01*
X119614831Y-132443796D01*
X119730046Y-132357546D01*
X119816296Y-132242331D01*
X119826690Y-132214460D01*
X119842013Y-132193991D01*
X119853948Y-132171372D01*
X119862603Y-132166483D01*
X119868560Y-132158527D01*
X119892520Y-132149589D01*
X119914787Y-132137015D01*
X119924709Y-132137582D01*
X119934023Y-132134108D01*
X119959012Y-132139543D01*
X119984543Y-132141003D01*
X119997740Y-132147967D01*
X120002297Y-132148958D01*
X120015752Y-132157470D01*
X120108386Y-132224772D01*
X120151051Y-132280100D01*
X120159500Y-132325089D01*
X120159500Y-135038846D01*
X120190261Y-135193489D01*
X120190264Y-135193501D01*
X120250602Y-135339172D01*
X120250609Y-135339185D01*
X120338210Y-135470288D01*
X120338213Y-135470292D01*
X126162207Y-141294286D01*
X126162211Y-141294289D01*
X126293314Y-141381890D01*
X126293327Y-141381897D01*
X126438998Y-141442235D01*
X126439003Y-141442237D01*
X126593653Y-141472999D01*
X126593656Y-141473000D01*
X126593658Y-141473000D01*
X126751342Y-141473000D01*
X133082721Y-141473000D01*
X133149760Y-141492685D01*
X133195515Y-141545489D01*
X133206079Y-141584400D01*
X133210000Y-141622796D01*
X133210001Y-141622799D01*
X133265185Y-141789331D01*
X133265186Y-141789334D01*
X133357288Y-141938656D01*
X133481344Y-142062712D01*
X133630666Y-142154814D01*
X133797203Y-142209999D01*
X133899991Y-142220500D01*
X136100008Y-142220499D01*
X136202797Y-142209999D01*
X136369334Y-142154814D01*
X136518656Y-142062712D01*
X136642712Y-141938656D01*
X136734814Y-141789334D01*
X136789999Y-141622797D01*
X136800500Y-141520009D01*
X136800499Y-139319992D01*
X136789999Y-139217203D01*
X136734814Y-139050666D01*
X136642712Y-138901344D01*
X136518656Y-138777288D01*
X136369334Y-138685186D01*
X136202797Y-138630001D01*
X136202795Y-138630000D01*
X136100010Y-138619500D01*
X133899998Y-138619500D01*
X133899981Y-138619501D01*
X133797203Y-138630000D01*
X133797200Y-138630001D01*
X133630668Y-138685185D01*
X133630663Y-138685187D01*
X133481342Y-138777289D01*
X133357289Y-138901342D01*
X133265187Y-139050663D01*
X133265186Y-139050666D01*
X133210001Y-139217203D01*
X133210001Y-139217204D01*
X133210000Y-139217204D01*
X133199500Y-139319983D01*
X133199500Y-139748000D01*
X133179815Y-139815039D01*
X133127011Y-139860794D01*
X133075500Y-139872000D01*
X127055440Y-139872000D01*
X126988401Y-139852315D01*
X126967759Y-139835681D01*
X121796819Y-134664741D01*
X121763334Y-134603418D01*
X121760500Y-134577060D01*
X121760500Y-132325089D01*
X121780185Y-132258050D01*
X121811609Y-132224775D01*
X121906566Y-132155786D01*
X122068286Y-131994066D01*
X122129992Y-131909134D01*
X122185319Y-131866470D01*
X122254932Y-131860491D01*
X122316727Y-131893096D01*
X122330626Y-131909135D01*
X122392097Y-131993741D01*
X122392097Y-131993742D01*
X122553757Y-132155402D01*
X122738723Y-132289788D01*
X122942429Y-132393582D01*
X123159871Y-132464234D01*
X123250000Y-132478509D01*
X123250000Y-131490747D01*
X123287708Y-131512518D01*
X123427591Y-131550000D01*
X123572409Y-131550000D01*
X123712292Y-131512518D01*
X123750000Y-131490747D01*
X123750000Y-132478508D01*
X123840128Y-132464234D01*
X124057570Y-132393582D01*
X124261276Y-132289788D01*
X124446242Y-132155402D01*
X124607902Y-131993742D01*
X124742288Y-131808776D01*
X124846082Y-131605070D01*
X124916734Y-131387628D01*
X124938532Y-131250000D01*
X123990748Y-131250000D01*
X124012518Y-131212292D01*
X124050000Y-131072409D01*
X124050000Y-130927591D01*
X124012518Y-130787708D01*
X123990748Y-130750000D01*
X124938532Y-130750000D01*
X124916734Y-130612371D01*
X124846082Y-130394929D01*
X124742288Y-130191223D01*
X124607902Y-130006257D01*
X124446242Y-129844597D01*
X124261276Y-129710211D01*
X124057568Y-129606417D01*
X123840124Y-129535765D01*
X123750000Y-129521490D01*
X123750000Y-130509252D01*
X123712292Y-130487482D01*
X123572409Y-130450000D01*
X123427591Y-130450000D01*
X123287708Y-130487482D01*
X123250000Y-130509252D01*
X123250000Y-129521490D01*
X123249999Y-129521490D01*
X123159875Y-129535765D01*
X122942431Y-129606417D01*
X122738723Y-129710211D01*
X122553757Y-129844597D01*
X122392097Y-130006257D01*
X122330627Y-130090864D01*
X122275297Y-130133529D01*
X122205684Y-130139508D01*
X122143889Y-130106902D01*
X122129991Y-130090864D01*
X122068286Y-130005934D01*
X121906566Y-129844214D01*
X121721538Y-129709783D01*
X121517755Y-129605950D01*
X121300248Y-129535278D01*
X121130826Y-129508444D01*
X121074354Y-129499500D01*
X120845646Y-129499500D01*
X120770349Y-129511426D01*
X120619753Y-129535278D01*
X120619750Y-129535278D01*
X120402244Y-129605950D01*
X120198461Y-129709783D01*
X120015759Y-129842525D01*
X119949952Y-129866005D01*
X119881898Y-129850180D01*
X119833203Y-129800074D01*
X119826690Y-129785538D01*
X119816296Y-129757669D01*
X119816293Y-129757664D01*
X119730047Y-129642455D01*
X119730044Y-129642452D01*
X119614835Y-129556206D01*
X119614828Y-129556202D01*
X119479986Y-129505910D01*
X119479985Y-129505909D01*
X119479983Y-129505909D01*
X119420373Y-129499500D01*
X119420364Y-129499500D01*
X119418206Y-129499268D01*
X119353655Y-129472529D01*
X119313807Y-129415137D01*
X119311313Y-129345312D01*
X119343778Y-129288299D01*
X122295259Y-126336819D01*
X122356582Y-126303334D01*
X122382940Y-126300500D01*
X141078844Y-126300500D01*
X141078845Y-126300499D01*
X141233497Y-126269737D01*
X141379179Y-126209394D01*
X141510289Y-126121789D01*
X147121789Y-120510289D01*
X147209394Y-120379179D01*
X147269738Y-120233497D01*
X147300500Y-120078842D01*
X147300500Y-119921157D01*
X147300500Y-105882940D01*
X147320185Y-105815901D01*
X147336819Y-105795259D01*
X149335259Y-103796819D01*
X149396582Y-103763334D01*
X149422940Y-103760500D01*
X149910967Y-103760500D01*
X149978006Y-103780185D01*
X150005252Y-103803962D01*
X150008035Y-103807220D01*
X150152786Y-103951971D01*
X150307749Y-104064556D01*
X150318390Y-104072287D01*
X150409840Y-104118883D01*
X150411080Y-104119515D01*
X150461876Y-104167490D01*
X150478671Y-104235311D01*
X150456134Y-104301446D01*
X150411080Y-104340485D01*
X150318386Y-104387715D01*
X150152786Y-104508028D01*
X150008028Y-104652786D01*
X149887715Y-104818386D01*
X149794781Y-105000776D01*
X149731522Y-105195465D01*
X149699500Y-105397648D01*
X149699500Y-105602351D01*
X149731522Y-105804534D01*
X149794781Y-105999223D01*
X149887715Y-106181613D01*
X150008028Y-106347213D01*
X150152786Y-106491971D01*
X150307749Y-106604556D01*
X150318390Y-106612287D01*
X150409840Y-106658883D01*
X150411080Y-106659515D01*
X150461876Y-106707490D01*
X150478671Y-106775311D01*
X150456134Y-106841446D01*
X150411080Y-106880485D01*
X150318386Y-106927715D01*
X150152786Y-107048028D01*
X150008028Y-107192786D01*
X149887715Y-107358386D01*
X149794781Y-107540776D01*
X149731522Y-107735465D01*
X149699500Y-107937648D01*
X149699500Y-108142351D01*
X149731522Y-108344534D01*
X149794781Y-108539223D01*
X149887715Y-108721613D01*
X150008028Y-108887213D01*
X150152786Y-109031971D01*
X150307749Y-109144556D01*
X150318390Y-109152287D01*
X150409840Y-109198883D01*
X150411080Y-109199515D01*
X150461876Y-109247490D01*
X150478671Y-109315311D01*
X150456134Y-109381446D01*
X150411080Y-109420485D01*
X150318386Y-109467715D01*
X150152786Y-109588028D01*
X150008028Y-109732786D01*
X149887715Y-109898386D01*
X149794781Y-110080776D01*
X149731522Y-110275465D01*
X149699500Y-110477648D01*
X149699500Y-110682351D01*
X149731522Y-110884534D01*
X149794781Y-111079223D01*
X149887715Y-111261613D01*
X150008028Y-111427213D01*
X150152786Y-111571971D01*
X150277105Y-111662292D01*
X150318390Y-111692287D01*
X150407534Y-111737708D01*
X150411080Y-111739515D01*
X150461876Y-111787490D01*
X150478671Y-111855311D01*
X150456134Y-111921446D01*
X150411080Y-111960485D01*
X150318386Y-112007715D01*
X150152786Y-112128028D01*
X150008028Y-112272786D01*
X149887715Y-112438386D01*
X149794781Y-112620776D01*
X149731522Y-112815465D01*
X149699500Y-113017648D01*
X149699500Y-113222351D01*
X149731522Y-113424534D01*
X149794781Y-113619223D01*
X149887715Y-113801613D01*
X150008028Y-113967213D01*
X150152786Y-114111971D01*
X150307671Y-114224499D01*
X150318390Y-114232287D01*
X150409840Y-114278883D01*
X150411080Y-114279515D01*
X150461876Y-114327490D01*
X150478671Y-114395311D01*
X150456134Y-114461446D01*
X150411080Y-114500485D01*
X150318386Y-114547715D01*
X150152786Y-114668028D01*
X150008028Y-114812786D01*
X149887715Y-114978386D01*
X149794781Y-115160776D01*
X149731522Y-115355465D01*
X149699500Y-115557648D01*
X149699500Y-115762351D01*
X149731522Y-115964534D01*
X149794781Y-116159223D01*
X149887715Y-116341613D01*
X150008028Y-116507213D01*
X150152786Y-116651971D01*
X150265005Y-116733501D01*
X150318390Y-116772287D01*
X150409840Y-116818883D01*
X150411080Y-116819515D01*
X150461876Y-116867490D01*
X150478671Y-116935311D01*
X150456134Y-117001446D01*
X150411080Y-117040485D01*
X150318386Y-117087715D01*
X150152786Y-117208028D01*
X150008028Y-117352786D01*
X149887715Y-117518386D01*
X149794781Y-117700776D01*
X149731522Y-117895465D01*
X149699500Y-118097648D01*
X149699500Y-118302351D01*
X149731522Y-118504534D01*
X149794781Y-118699223D01*
X149887715Y-118881613D01*
X150008028Y-119047213D01*
X150152786Y-119191971D01*
X150295774Y-119295856D01*
X150318390Y-119312287D01*
X150409840Y-119358883D01*
X150411080Y-119359515D01*
X150461876Y-119407490D01*
X150478671Y-119475311D01*
X150456134Y-119541446D01*
X150411080Y-119580485D01*
X150318386Y-119627715D01*
X150152786Y-119748028D01*
X150008028Y-119892786D01*
X149887715Y-120058386D01*
X149794781Y-120240776D01*
X149731522Y-120435465D01*
X149699500Y-120637648D01*
X149699500Y-120842351D01*
X149731522Y-121044534D01*
X149794781Y-121239223D01*
X149887715Y-121421613D01*
X150008028Y-121587213D01*
X150152786Y-121731971D01*
X150307749Y-121844556D01*
X150318390Y-121852287D01*
X150409840Y-121898883D01*
X150411080Y-121899515D01*
X150461876Y-121947490D01*
X150478671Y-122015311D01*
X150456134Y-122081446D01*
X150411080Y-122120485D01*
X150318386Y-122167715D01*
X150152786Y-122288028D01*
X150008028Y-122432786D01*
X149887715Y-122598386D01*
X149794781Y-122780776D01*
X149731522Y-122975465D01*
X149699500Y-123177648D01*
X149699500Y-123382351D01*
X149731522Y-123584534D01*
X149794781Y-123779223D01*
X149887715Y-123961613D01*
X150008028Y-124127213D01*
X150152786Y-124271971D01*
X150270219Y-124357289D01*
X150318390Y-124392287D01*
X150409840Y-124438883D01*
X150411080Y-124439515D01*
X150461876Y-124487490D01*
X150478671Y-124555311D01*
X150456134Y-124621446D01*
X150411080Y-124660485D01*
X150318386Y-124707715D01*
X150152786Y-124828028D01*
X150008028Y-124972786D01*
X149887715Y-125138386D01*
X149794781Y-125320776D01*
X149731522Y-125515465D01*
X149699500Y-125717648D01*
X149699500Y-125922351D01*
X149731522Y-126124534D01*
X149794781Y-126319223D01*
X149887715Y-126501613D01*
X150008028Y-126667213D01*
X150152786Y-126811971D01*
X150307749Y-126924556D01*
X150318390Y-126932287D01*
X150409840Y-126978883D01*
X150411080Y-126979515D01*
X150461876Y-127027490D01*
X150478671Y-127095311D01*
X150456134Y-127161446D01*
X150411080Y-127200485D01*
X150318386Y-127247715D01*
X150152786Y-127368028D01*
X150008028Y-127512786D01*
X149887715Y-127678386D01*
X149794781Y-127860776D01*
X149731522Y-128055465D01*
X149699500Y-128257648D01*
X149699500Y-128462351D01*
X149731522Y-128664534D01*
X149794781Y-128859223D01*
X149887715Y-129041613D01*
X150008028Y-129207213D01*
X150152786Y-129351971D01*
X150260584Y-129430289D01*
X150318390Y-129472287D01*
X150414956Y-129521490D01*
X150500776Y-129565218D01*
X150500778Y-129565218D01*
X150500781Y-129565220D01*
X150605137Y-129599127D01*
X150695465Y-129628477D01*
X150783699Y-129642452D01*
X150897648Y-129660500D01*
X150897649Y-129660500D01*
X151102351Y-129660500D01*
X151102352Y-129660500D01*
X151304534Y-129628477D01*
X151499219Y-129565220D01*
X151681610Y-129472287D01*
X151814827Y-129375500D01*
X151847213Y-129351971D01*
X151847215Y-129351968D01*
X151847219Y-129351966D01*
X151991966Y-129207219D01*
X151991968Y-129207215D01*
X151991971Y-129207213D01*
X152044732Y-129134590D01*
X152112287Y-129041610D01*
X152205220Y-128859219D01*
X152268477Y-128664534D01*
X152300500Y-128462352D01*
X152300500Y-128257648D01*
X152271220Y-128072786D01*
X152268477Y-128055465D01*
X152205218Y-127860776D01*
X152158557Y-127769200D01*
X152112287Y-127678390D01*
X152092767Y-127651523D01*
X151991971Y-127512786D01*
X151847213Y-127368028D01*
X151681614Y-127247715D01*
X151593461Y-127202799D01*
X151588917Y-127200483D01*
X151538123Y-127152511D01*
X151521328Y-127084690D01*
X151543865Y-127018555D01*
X151588917Y-126979516D01*
X151681610Y-126932287D01*
X151702770Y-126916913D01*
X151847213Y-126811971D01*
X151847215Y-126811968D01*
X151847219Y-126811966D01*
X151991966Y-126667219D01*
X151991968Y-126667215D01*
X151991971Y-126667213D01*
X152109905Y-126504888D01*
X152112287Y-126501610D01*
X152205220Y-126319219D01*
X152268477Y-126124534D01*
X152300500Y-125922352D01*
X152300500Y-125717648D01*
X152268477Y-125515466D01*
X152205220Y-125320781D01*
X152205218Y-125320778D01*
X152205218Y-125320776D01*
X152171503Y-125254607D01*
X152112287Y-125138390D01*
X152099525Y-125120824D01*
X151991971Y-124972786D01*
X151847213Y-124828028D01*
X151681614Y-124707715D01*
X151659929Y-124696666D01*
X151588917Y-124660483D01*
X151538123Y-124612511D01*
X151521328Y-124544690D01*
X151543865Y-124478555D01*
X151588917Y-124439516D01*
X151681610Y-124392287D01*
X151729781Y-124357289D01*
X151847213Y-124271971D01*
X151847215Y-124271968D01*
X151847219Y-124271966D01*
X151991966Y-124127219D01*
X151991968Y-124127215D01*
X151991971Y-124127213D01*
X152044732Y-124054590D01*
X152112287Y-123961610D01*
X152205220Y-123779219D01*
X152268477Y-123584534D01*
X152300500Y-123382352D01*
X152300500Y-123177648D01*
X152268477Y-122975466D01*
X152205220Y-122780781D01*
X152205218Y-122780778D01*
X152205218Y-122780776D01*
X152166483Y-122704755D01*
X152112287Y-122598390D01*
X152098544Y-122579474D01*
X151991971Y-122432786D01*
X151847213Y-122288028D01*
X151681614Y-122167715D01*
X151675006Y-122164348D01*
X151588917Y-122120483D01*
X151538123Y-122072511D01*
X151521328Y-122004690D01*
X151543865Y-121938555D01*
X151588917Y-121899516D01*
X151681610Y-121852287D01*
X151702770Y-121836913D01*
X151847213Y-121731971D01*
X151847215Y-121731968D01*
X151847219Y-121731966D01*
X151991966Y-121587219D01*
X151991968Y-121587215D01*
X151991971Y-121587213D01*
X152055334Y-121500000D01*
X152112287Y-121421610D01*
X152205220Y-121239219D01*
X152268477Y-121044534D01*
X152300500Y-120842352D01*
X152300500Y-120637648D01*
X152281994Y-120520809D01*
X152268477Y-120435465D01*
X152222916Y-120295244D01*
X152205220Y-120240781D01*
X152205218Y-120240778D01*
X152205218Y-120240776D01*
X152142767Y-120118211D01*
X152112287Y-120058390D01*
X152092098Y-120030602D01*
X151991971Y-119892786D01*
X151847213Y-119748028D01*
X151681614Y-119627715D01*
X151660702Y-119617060D01*
X151588917Y-119580483D01*
X151538123Y-119532511D01*
X151521328Y-119464690D01*
X151543865Y-119398555D01*
X151588917Y-119359516D01*
X151681610Y-119312287D01*
X151704226Y-119295856D01*
X151847213Y-119191971D01*
X151847215Y-119191968D01*
X151847219Y-119191966D01*
X151991966Y-119047219D01*
X151991968Y-119047215D01*
X151991971Y-119047213D01*
X152044732Y-118974590D01*
X152112287Y-118881610D01*
X152205220Y-118699219D01*
X152268477Y-118504534D01*
X152300500Y-118302352D01*
X152300500Y-118097648D01*
X152291553Y-118041158D01*
X152268477Y-117895465D01*
X152206662Y-117705220D01*
X152205220Y-117700781D01*
X152205218Y-117700778D01*
X152205218Y-117700776D01*
X152160128Y-117612284D01*
X152112287Y-117518390D01*
X152093089Y-117491966D01*
X151991971Y-117352786D01*
X151847213Y-117208028D01*
X151681614Y-117087715D01*
X151675006Y-117084348D01*
X151588917Y-117040483D01*
X151538123Y-116992511D01*
X151521328Y-116924690D01*
X151543865Y-116858555D01*
X151588917Y-116819516D01*
X151681610Y-116772287D01*
X151735011Y-116733489D01*
X151847213Y-116651971D01*
X151847215Y-116651968D01*
X151847219Y-116651966D01*
X151991966Y-116507219D01*
X151991968Y-116507215D01*
X151991971Y-116507213D01*
X152071573Y-116397648D01*
X152112287Y-116341610D01*
X152205220Y-116159219D01*
X152268477Y-115964534D01*
X152300500Y-115762352D01*
X152300500Y-115557648D01*
X152287506Y-115475609D01*
X152268477Y-115355465D01*
X152239127Y-115265137D01*
X152205220Y-115160781D01*
X152205218Y-115160778D01*
X152205218Y-115160776D01*
X152171503Y-115094607D01*
X152112287Y-114978390D01*
X152104556Y-114967749D01*
X151991971Y-114812786D01*
X151847213Y-114668028D01*
X151681614Y-114547715D01*
X151675006Y-114544348D01*
X151588917Y-114500483D01*
X151538123Y-114452511D01*
X151521328Y-114384690D01*
X151543865Y-114318555D01*
X151588917Y-114279516D01*
X151681610Y-114232287D01*
X151763230Y-114172987D01*
X151847213Y-114111971D01*
X151847215Y-114111968D01*
X151847219Y-114111966D01*
X151991966Y-113967219D01*
X151991968Y-113967215D01*
X151991971Y-113967213D01*
X152046412Y-113892280D01*
X152112287Y-113801610D01*
X152205220Y-113619219D01*
X152268477Y-113424534D01*
X152300500Y-113222352D01*
X152300500Y-113017648D01*
X152285747Y-112924500D01*
X152268477Y-112815465D01*
X152205218Y-112620776D01*
X152150057Y-112512518D01*
X152112287Y-112438390D01*
X152092146Y-112410668D01*
X151991971Y-112272786D01*
X151847213Y-112128028D01*
X151681614Y-112007715D01*
X151675006Y-112004348D01*
X151588917Y-111960483D01*
X151538123Y-111912511D01*
X151521328Y-111844690D01*
X151543865Y-111778555D01*
X151588917Y-111739516D01*
X151681610Y-111692287D01*
X151791715Y-111612292D01*
X151847213Y-111571971D01*
X151847215Y-111571968D01*
X151847219Y-111571966D01*
X151991966Y-111427219D01*
X151991968Y-111427215D01*
X151991971Y-111427213D01*
X152044732Y-111354590D01*
X152112287Y-111261610D01*
X152205220Y-111079219D01*
X152268477Y-110884534D01*
X152300500Y-110682352D01*
X152300500Y-110477648D01*
X152284751Y-110378212D01*
X152268477Y-110275465D01*
X152237894Y-110181342D01*
X152205220Y-110080781D01*
X152205218Y-110080778D01*
X152205218Y-110080776D01*
X152167476Y-110006704D01*
X152112287Y-109898390D01*
X152098792Y-109879815D01*
X151991971Y-109732786D01*
X151847213Y-109588028D01*
X151681614Y-109467715D01*
X151675006Y-109464348D01*
X151588917Y-109420483D01*
X151538123Y-109372511D01*
X151521328Y-109304690D01*
X151543865Y-109238555D01*
X151588917Y-109199516D01*
X151681610Y-109152287D01*
X151702770Y-109136913D01*
X151847213Y-109031971D01*
X151847215Y-109031968D01*
X151847219Y-109031966D01*
X151991966Y-108887219D01*
X151991968Y-108887215D01*
X151991971Y-108887213D01*
X152044732Y-108814590D01*
X152112287Y-108721610D01*
X152205220Y-108539219D01*
X152268477Y-108344534D01*
X152300500Y-108142352D01*
X152300500Y-107937648D01*
X152277211Y-107790609D01*
X152268477Y-107735465D01*
X152205218Y-107540776D01*
X152171503Y-107474607D01*
X152112287Y-107358390D01*
X152104556Y-107347749D01*
X151991971Y-107192786D01*
X151847213Y-107048028D01*
X151681614Y-106927715D01*
X151675006Y-106924348D01*
X151588917Y-106880483D01*
X151538123Y-106832511D01*
X151521328Y-106764690D01*
X151543865Y-106698555D01*
X151588917Y-106659516D01*
X151681610Y-106612287D01*
X151702770Y-106596913D01*
X151847213Y-106491971D01*
X151847215Y-106491968D01*
X151847219Y-106491966D01*
X151991966Y-106347219D01*
X151991968Y-106347215D01*
X151991971Y-106347213D01*
X152044732Y-106274590D01*
X152112287Y-106181610D01*
X152205220Y-105999219D01*
X152268477Y-105804534D01*
X152300500Y-105602352D01*
X152300500Y-105397648D01*
X152268477Y-105195465D01*
X152205218Y-105000776D01*
X152171503Y-104934607D01*
X152112287Y-104818390D01*
X152104556Y-104807749D01*
X151991971Y-104652786D01*
X151847213Y-104508028D01*
X151681614Y-104387715D01*
X151675006Y-104384348D01*
X151588917Y-104340483D01*
X151538123Y-104292511D01*
X151521328Y-104224690D01*
X151543865Y-104158555D01*
X151588917Y-104119516D01*
X151681610Y-104072287D01*
X151702770Y-104056913D01*
X151847213Y-103951971D01*
X151847215Y-103951968D01*
X151847219Y-103951966D01*
X151991966Y-103807219D01*
X151991968Y-103807215D01*
X151991971Y-103807213D01*
X152044732Y-103734590D01*
X152112287Y-103641610D01*
X152205220Y-103459219D01*
X152268477Y-103264534D01*
X152300500Y-103062352D01*
X152300500Y-102857648D01*
X152268477Y-102655466D01*
X152205220Y-102460781D01*
X152205218Y-102460778D01*
X152205218Y-102460776D01*
X152171503Y-102394607D01*
X152112287Y-102278390D01*
X152092101Y-102250606D01*
X151991971Y-102112786D01*
X151847213Y-101968028D01*
X151681611Y-101847713D01*
X151588369Y-101800203D01*
X151537574Y-101752229D01*
X151520779Y-101684407D01*
X151543317Y-101618273D01*
X151588371Y-101579234D01*
X151681347Y-101531861D01*
X151846894Y-101411582D01*
X151846895Y-101411582D01*
X151991582Y-101266895D01*
X151991582Y-101266894D01*
X152111859Y-101101349D01*
X152204755Y-100919029D01*
X152267990Y-100724413D01*
X152276609Y-100670000D01*
X151433012Y-100670000D01*
X151465925Y-100612993D01*
X151500000Y-100485826D01*
X151500000Y-100354174D01*
X151465925Y-100227007D01*
X151433012Y-100170000D01*
X152276609Y-100170000D01*
X152267990Y-100115586D01*
X152204755Y-99920970D01*
X152111859Y-99738650D01*
X151991582Y-99573105D01*
X151991582Y-99573104D01*
X151846895Y-99428417D01*
X151681349Y-99308140D01*
X151596647Y-99264982D01*
X151576194Y-99245665D01*
X151553675Y-99228807D01*
X151551135Y-99221997D01*
X151545851Y-99217007D01*
X151539088Y-99189700D01*
X151529258Y-99163343D01*
X151530803Y-99156240D01*
X151529056Y-99149186D01*
X151538129Y-99122559D01*
X151544110Y-99095070D01*
X151550329Y-99086762D01*
X151551594Y-99083051D01*
X151565261Y-99066816D01*
X151582461Y-99049616D01*
X151613842Y-99026815D01*
X151681610Y-98992287D01*
X151847219Y-98871966D01*
X151991966Y-98727219D01*
X151991972Y-98727210D01*
X151994748Y-98723962D01*
X152053258Y-98685773D01*
X152089033Y-98680500D01*
X165150967Y-98680500D01*
X165180407Y-98689144D01*
X165210394Y-98695668D01*
X165214798Y-98699243D01*
X165218006Y-98700185D01*
X165238648Y-98716819D01*
X165245340Y-98723511D01*
X165248034Y-98727219D01*
X165392781Y-98871966D01*
X165396488Y-98874659D01*
X165403181Y-98881352D01*
X165417684Y-98907912D01*
X165434227Y-98933258D01*
X165435226Y-98940038D01*
X165436666Y-98942675D01*
X165436322Y-98947476D01*
X165439500Y-98969033D01*
X165439500Y-99330966D01*
X165419815Y-99398005D01*
X165396046Y-99425244D01*
X165392784Y-99428030D01*
X165248028Y-99572786D01*
X165127715Y-99738386D01*
X165034781Y-99920776D01*
X164971522Y-100115465D01*
X164939500Y-100317648D01*
X164939500Y-100522351D01*
X164971522Y-100724534D01*
X165034781Y-100919223D01*
X165127715Y-101101613D01*
X165248028Y-101267213D01*
X165392786Y-101411971D01*
X165547749Y-101524556D01*
X165558390Y-101532287D01*
X165649840Y-101578883D01*
X165651080Y-101579515D01*
X165701876Y-101627490D01*
X165718671Y-101695311D01*
X165696134Y-101761446D01*
X165651080Y-101800485D01*
X165558386Y-101847715D01*
X165392786Y-101968028D01*
X165248028Y-102112786D01*
X165127715Y-102278386D01*
X165034781Y-102460776D01*
X164971522Y-102655465D01*
X164939500Y-102857648D01*
X164939500Y-103062351D01*
X164971522Y-103264534D01*
X165034781Y-103459223D01*
X165127715Y-103641613D01*
X165248028Y-103807213D01*
X165392786Y-103951971D01*
X165547749Y-104064556D01*
X165558390Y-104072287D01*
X165649840Y-104118883D01*
X165651080Y-104119515D01*
X165701876Y-104167490D01*
X165718671Y-104235311D01*
X165696134Y-104301446D01*
X165651080Y-104340485D01*
X165558386Y-104387715D01*
X165392786Y-104508028D01*
X165248028Y-104652786D01*
X165127715Y-104818386D01*
X165034781Y-105000776D01*
X164971522Y-105195465D01*
X164939500Y-105397648D01*
X164939500Y-105602351D01*
X164971522Y-105804534D01*
X165034781Y-105999223D01*
X165127715Y-106181613D01*
X165248028Y-106347213D01*
X165392786Y-106491971D01*
X165547749Y-106604556D01*
X165558390Y-106612287D01*
X165649840Y-106658883D01*
X165651080Y-106659515D01*
X165701876Y-106707490D01*
X165718671Y-106775311D01*
X165696134Y-106841446D01*
X165651080Y-106880485D01*
X165558386Y-106927715D01*
X165392786Y-107048028D01*
X165248028Y-107192786D01*
X165127715Y-107358386D01*
X165034781Y-107540776D01*
X164971522Y-107735465D01*
X164939500Y-107937648D01*
X164939500Y-108142351D01*
X164971522Y-108344534D01*
X165034781Y-108539223D01*
X165127715Y-108721613D01*
X165248028Y-108887213D01*
X165392786Y-109031971D01*
X165547749Y-109144556D01*
X165558390Y-109152287D01*
X165649840Y-109198883D01*
X165651080Y-109199515D01*
X165701876Y-109247490D01*
X165718671Y-109315311D01*
X165696134Y-109381446D01*
X165651080Y-109420485D01*
X165558386Y-109467715D01*
X165392786Y-109588028D01*
X165248028Y-109732786D01*
X165127715Y-109898386D01*
X165034781Y-110080776D01*
X164971522Y-110275465D01*
X164939500Y-110477648D01*
X164939500Y-110682351D01*
X164971522Y-110884534D01*
X165034781Y-111079223D01*
X165127715Y-111261613D01*
X165248028Y-111427213D01*
X165392786Y-111571971D01*
X165517105Y-111662292D01*
X165558390Y-111692287D01*
X165647534Y-111737708D01*
X165651080Y-111739515D01*
X165701876Y-111787490D01*
X165718671Y-111855311D01*
X165696134Y-111921446D01*
X165651080Y-111960485D01*
X165558386Y-112007715D01*
X165392786Y-112128028D01*
X165248028Y-112272786D01*
X165127715Y-112438386D01*
X165034781Y-112620776D01*
X164971522Y-112815465D01*
X164939500Y-113017648D01*
X164939500Y-113222351D01*
X164971522Y-113424534D01*
X165034781Y-113619223D01*
X165127715Y-113801613D01*
X165248028Y-113967213D01*
X165392786Y-114111971D01*
X165547671Y-114224499D01*
X165558390Y-114232287D01*
X165649840Y-114278883D01*
X165651080Y-114279515D01*
X165701876Y-114327490D01*
X165718671Y-114395311D01*
X165696134Y-114461446D01*
X165651080Y-114500485D01*
X165558386Y-114547715D01*
X165392786Y-114668028D01*
X165248028Y-114812786D01*
X165127715Y-114978386D01*
X165034781Y-115160776D01*
X164971522Y-115355465D01*
X164939500Y-115557648D01*
X164939500Y-115762351D01*
X164971522Y-115964534D01*
X165034781Y-116159223D01*
X165127715Y-116341613D01*
X165248028Y-116507213D01*
X165392786Y-116651971D01*
X165505005Y-116733501D01*
X165558390Y-116772287D01*
X165649840Y-116818883D01*
X165651080Y-116819515D01*
X165701876Y-116867490D01*
X165718671Y-116935311D01*
X165696134Y-117001446D01*
X165651080Y-117040485D01*
X165558386Y-117087715D01*
X165392786Y-117208028D01*
X165248028Y-117352786D01*
X165127715Y-117518386D01*
X165034781Y-117700776D01*
X164971522Y-117895465D01*
X164939500Y-118097648D01*
X164939500Y-118302351D01*
X164971522Y-118504534D01*
X165034781Y-118699223D01*
X165127715Y-118881613D01*
X165248028Y-119047213D01*
X165392786Y-119191971D01*
X165535774Y-119295856D01*
X165558390Y-119312287D01*
X165649840Y-119358883D01*
X165651080Y-119359515D01*
X165701876Y-119407490D01*
X165718671Y-119475311D01*
X165696134Y-119541446D01*
X165651080Y-119580485D01*
X165558386Y-119627715D01*
X165392786Y-119748028D01*
X165248028Y-119892786D01*
X165127715Y-120058386D01*
X165034781Y-120240776D01*
X164971522Y-120435465D01*
X164939500Y-120637648D01*
X164939500Y-120842351D01*
X164971522Y-121044534D01*
X165034781Y-121239223D01*
X165127715Y-121421613D01*
X165248028Y-121587213D01*
X165392786Y-121731971D01*
X165547749Y-121844556D01*
X165558390Y-121852287D01*
X165649840Y-121898883D01*
X165651080Y-121899515D01*
X165701876Y-121947490D01*
X165718671Y-122015311D01*
X165696134Y-122081446D01*
X165651080Y-122120485D01*
X165558386Y-122167715D01*
X165392786Y-122288028D01*
X165248028Y-122432786D01*
X165127715Y-122598386D01*
X165034781Y-122780776D01*
X164971522Y-122975465D01*
X164939500Y-123177648D01*
X164939500Y-123382351D01*
X164971522Y-123584534D01*
X165034781Y-123779223D01*
X165127715Y-123961613D01*
X165248028Y-124127213D01*
X165392786Y-124271971D01*
X165510219Y-124357289D01*
X165558390Y-124392287D01*
X165649840Y-124438883D01*
X165651080Y-124439515D01*
X165701876Y-124487490D01*
X165718671Y-124555311D01*
X165696134Y-124621446D01*
X165651080Y-124660485D01*
X165558386Y-124707715D01*
X165392786Y-124828028D01*
X165248028Y-124972786D01*
X165127715Y-125138386D01*
X165034781Y-125320776D01*
X164971522Y-125515465D01*
X164939500Y-125717648D01*
X164939500Y-125922351D01*
X164971522Y-126124534D01*
X165034781Y-126319223D01*
X165127715Y-126501613D01*
X165248028Y-126667213D01*
X165392786Y-126811971D01*
X165547749Y-126924556D01*
X165558390Y-126932287D01*
X165649840Y-126978883D01*
X165651080Y-126979515D01*
X165701876Y-127027490D01*
X165718671Y-127095311D01*
X165696134Y-127161446D01*
X165651080Y-127200485D01*
X165558386Y-127247715D01*
X165392786Y-127368028D01*
X165248028Y-127512786D01*
X165127715Y-127678386D01*
X165034781Y-127860776D01*
X164971522Y-128055465D01*
X164939500Y-128257648D01*
X164939500Y-128462351D01*
X164971522Y-128664534D01*
X165034781Y-128859223D01*
X165127715Y-129041613D01*
X165248028Y-129207213D01*
X165392786Y-129351971D01*
X165500584Y-129430289D01*
X165558390Y-129472287D01*
X165654956Y-129521490D01*
X165740776Y-129565218D01*
X165740778Y-129565218D01*
X165740781Y-129565220D01*
X165845137Y-129599127D01*
X165935465Y-129628477D01*
X166023699Y-129642452D01*
X166137648Y-129660500D01*
X166137649Y-129660500D01*
X166342351Y-129660500D01*
X166342352Y-129660500D01*
X166544534Y-129628477D01*
X166739219Y-129565220D01*
X166921610Y-129472287D01*
X167054827Y-129375500D01*
X167087213Y-129351971D01*
X167087215Y-129351968D01*
X167087219Y-129351966D01*
X167231966Y-129207219D01*
X167231968Y-129207215D01*
X167231971Y-129207213D01*
X167284732Y-129134590D01*
X167352287Y-129041610D01*
X167445220Y-128859219D01*
X167508477Y-128664534D01*
X167540500Y-128462352D01*
X167540500Y-128257648D01*
X167511220Y-128072786D01*
X167508477Y-128055465D01*
X167445218Y-127860776D01*
X167398557Y-127769200D01*
X167352287Y-127678390D01*
X167332767Y-127651523D01*
X167231971Y-127512786D01*
X167087213Y-127368028D01*
X166921614Y-127247715D01*
X166833461Y-127202799D01*
X166828917Y-127200483D01*
X166778123Y-127152511D01*
X166761328Y-127084690D01*
X166783865Y-127018555D01*
X166828917Y-126979516D01*
X166921610Y-126932287D01*
X166942770Y-126916913D01*
X167087213Y-126811971D01*
X167087215Y-126811968D01*
X167087219Y-126811966D01*
X167231966Y-126667219D01*
X167231968Y-126667215D01*
X167231971Y-126667213D01*
X167349905Y-126504888D01*
X167352287Y-126501610D01*
X167445220Y-126319219D01*
X167508477Y-126124534D01*
X167540500Y-125922352D01*
X167540500Y-125717648D01*
X167508477Y-125515466D01*
X167445220Y-125320781D01*
X167445218Y-125320778D01*
X167445218Y-125320776D01*
X167411503Y-125254607D01*
X167352287Y-125138390D01*
X167339525Y-125120824D01*
X167231971Y-124972786D01*
X167087213Y-124828028D01*
X166921614Y-124707715D01*
X166899929Y-124696666D01*
X166828917Y-124660483D01*
X166778123Y-124612511D01*
X166761328Y-124544690D01*
X166783865Y-124478555D01*
X166828917Y-124439516D01*
X166921610Y-124392287D01*
X166969781Y-124357289D01*
X167087213Y-124271971D01*
X167087215Y-124271968D01*
X167087219Y-124271966D01*
X167231966Y-124127219D01*
X167231968Y-124127215D01*
X167231971Y-124127213D01*
X167284732Y-124054590D01*
X167352287Y-123961610D01*
X167445220Y-123779219D01*
X167508477Y-123584534D01*
X167540500Y-123382352D01*
X167540500Y-123177648D01*
X167508477Y-122975466D01*
X167445220Y-122780781D01*
X167445218Y-122780778D01*
X167445218Y-122780776D01*
X167406483Y-122704755D01*
X167352287Y-122598390D01*
X167338544Y-122579474D01*
X167231971Y-122432786D01*
X167087213Y-122288028D01*
X166921614Y-122167715D01*
X166915006Y-122164348D01*
X166828917Y-122120483D01*
X166778123Y-122072511D01*
X166761328Y-122004690D01*
X166783865Y-121938555D01*
X166828917Y-121899516D01*
X166921610Y-121852287D01*
X166942770Y-121836913D01*
X167087213Y-121731971D01*
X167087215Y-121731968D01*
X167087219Y-121731966D01*
X167231966Y-121587219D01*
X167231972Y-121587210D01*
X167234748Y-121583962D01*
X167293258Y-121545773D01*
X167329033Y-121540500D01*
X168857060Y-121540500D01*
X168924099Y-121560185D01*
X168944741Y-121576819D01*
X173163181Y-125795259D01*
X173196666Y-125856582D01*
X173199500Y-125882940D01*
X173199500Y-136117060D01*
X173179815Y-136184099D01*
X173163181Y-136204741D01*
X145204741Y-164163181D01*
X145143418Y-164196666D01*
X145117060Y-164199500D01*
X113882940Y-164199500D01*
X113815901Y-164179815D01*
X113795259Y-164163181D01*
X95510292Y-145878213D01*
X95510288Y-145878210D01*
X95379185Y-145790609D01*
X95379172Y-145790602D01*
X95233501Y-145730264D01*
X95233489Y-145730261D01*
X95078845Y-145699500D01*
X95078842Y-145699500D01*
X92424500Y-145699500D01*
X92357461Y-145679815D01*
X92311706Y-145627011D01*
X92300500Y-145575500D01*
X92300500Y-140169033D01*
X92320185Y-140101994D01*
X92343962Y-140074748D01*
X92347210Y-140071972D01*
X92347219Y-140071966D01*
X92491966Y-139927219D01*
X92491968Y-139927215D01*
X92491971Y-139927213D01*
X92573469Y-139815039D01*
X92612287Y-139761610D01*
X92705220Y-139579219D01*
X92768477Y-139384534D01*
X92800500Y-139182352D01*
X92800500Y-138977648D01*
X92768477Y-138775466D01*
X92705220Y-138580781D01*
X92705218Y-138580778D01*
X92705218Y-138580776D01*
X92671503Y-138514607D01*
X92612287Y-138398390D01*
X92604556Y-138387749D01*
X92491971Y-138232786D01*
X92347213Y-138088028D01*
X92181613Y-137967715D01*
X92181612Y-137967714D01*
X92181610Y-137967713D01*
X92124653Y-137938691D01*
X91999223Y-137874781D01*
X91804534Y-137811522D01*
X91629995Y-137783878D01*
X91602352Y-137779500D01*
X91397648Y-137779500D01*
X91373329Y-137783351D01*
X91195465Y-137811522D01*
X91000776Y-137874781D01*
X90818386Y-137967715D01*
X90652786Y-138088028D01*
X90508028Y-138232786D01*
X90387715Y-138398386D01*
X90294781Y-138580776D01*
X90231522Y-138775465D01*
X90199500Y-138977648D01*
X90199500Y-139182351D01*
X90231522Y-139384534D01*
X90294781Y-139579223D01*
X90352849Y-139693186D01*
X90384787Y-139755868D01*
X90387715Y-139761613D01*
X90508028Y-139927213D01*
X90652779Y-140071964D01*
X90656038Y-140074748D01*
X90694227Y-140133258D01*
X90699500Y-140169033D01*
X90699500Y-145140121D01*
X90679815Y-145207160D01*
X90627011Y-145252915D01*
X90613818Y-145258052D01*
X90500778Y-145294781D01*
X90318386Y-145387715D01*
X90152786Y-145508028D01*
X90008028Y-145652786D01*
X89887715Y-145818386D01*
X89794781Y-146000776D01*
X89731522Y-146195465D01*
X89699500Y-146397648D01*
X89699500Y-146602351D01*
X89731522Y-146804534D01*
X89794781Y-146999223D01*
X89887715Y-147181613D01*
X90008028Y-147347213D01*
X90152786Y-147491971D01*
X90307749Y-147604556D01*
X90318390Y-147612287D01*
X90434607Y-147671503D01*
X90500776Y-147705218D01*
X90500778Y-147705218D01*
X90500781Y-147705220D01*
X90605137Y-147739127D01*
X90695465Y-147768477D01*
X90796557Y-147784488D01*
X90897648Y-147800500D01*
X90897649Y-147800500D01*
X91102351Y-147800500D01*
X91102352Y-147800500D01*
X91304534Y-147768477D01*
X91499219Y-147705220D01*
X91681610Y-147612287D01*
X91774590Y-147544732D01*
X91847213Y-147491971D01*
X91847215Y-147491968D01*
X91847219Y-147491966D01*
X91991966Y-147347219D01*
X91991972Y-147347210D01*
X91994748Y-147343962D01*
X92053258Y-147305773D01*
X92089033Y-147300500D01*
X94617060Y-147300500D01*
X94684099Y-147320185D01*
X94704741Y-147336819D01*
X112989707Y-165621786D01*
X112989711Y-165621789D01*
X113120814Y-165709390D01*
X113120827Y-165709397D01*
X113266498Y-165769735D01*
X113266503Y-165769737D01*
X113421153Y-165800499D01*
X113421156Y-165800500D01*
X113421158Y-165800500D01*
X145578844Y-165800500D01*
X145578845Y-165800499D01*
X145733497Y-165769737D01*
X145879179Y-165709394D01*
X146010289Y-165621789D01*
X174621789Y-137010289D01*
X174709394Y-136879179D01*
X174769738Y-136733497D01*
X174800500Y-136578842D01*
X174800500Y-136421157D01*
X174800500Y-125421158D01*
X174795696Y-125397006D01*
X174769738Y-125266503D01*
X174709394Y-125120821D01*
X174709392Y-125120818D01*
X174709390Y-125120814D01*
X174621789Y-124989711D01*
X174621786Y-124989707D01*
X169750292Y-120118213D01*
X169750288Y-120118210D01*
X169619185Y-120030609D01*
X169619172Y-120030602D01*
X169473501Y-119970264D01*
X169473489Y-119970261D01*
X169318845Y-119939500D01*
X169318842Y-119939500D01*
X167329033Y-119939500D01*
X167261994Y-119919815D01*
X167234748Y-119896038D01*
X167231964Y-119892779D01*
X167087213Y-119748028D01*
X166921614Y-119627715D01*
X166900702Y-119617060D01*
X166828917Y-119580483D01*
X166778123Y-119532511D01*
X166761328Y-119464690D01*
X166783865Y-119398555D01*
X166828917Y-119359516D01*
X166921610Y-119312287D01*
X166944226Y-119295856D01*
X167087213Y-119191971D01*
X167087215Y-119191968D01*
X167087219Y-119191966D01*
X167231966Y-119047219D01*
X167231968Y-119047215D01*
X167231971Y-119047213D01*
X167284732Y-118974590D01*
X167352287Y-118881610D01*
X167445220Y-118699219D01*
X167508477Y-118504534D01*
X167540500Y-118302352D01*
X167540500Y-118097648D01*
X167531553Y-118041158D01*
X167508477Y-117895465D01*
X167446662Y-117705220D01*
X167445220Y-117700781D01*
X167445218Y-117700778D01*
X167445218Y-117700776D01*
X167400128Y-117612284D01*
X167352287Y-117518390D01*
X167333089Y-117491966D01*
X167231971Y-117352786D01*
X167087213Y-117208028D01*
X166921614Y-117087715D01*
X166915006Y-117084348D01*
X166828917Y-117040483D01*
X166778123Y-116992511D01*
X166761328Y-116924690D01*
X166783865Y-116858555D01*
X166828917Y-116819516D01*
X166921610Y-116772287D01*
X166975011Y-116733489D01*
X167087213Y-116651971D01*
X167087215Y-116651968D01*
X167087219Y-116651966D01*
X167231966Y-116507219D01*
X167231968Y-116507215D01*
X167231971Y-116507213D01*
X167311573Y-116397648D01*
X167352287Y-116341610D01*
X167445220Y-116159219D01*
X167508477Y-115964534D01*
X167540500Y-115762352D01*
X167540500Y-115557648D01*
X167527506Y-115475609D01*
X167508477Y-115355465D01*
X167479127Y-115265137D01*
X167445220Y-115160781D01*
X167445218Y-115160778D01*
X167445218Y-115160776D01*
X167411503Y-115094607D01*
X167352287Y-114978390D01*
X167344556Y-114967749D01*
X167231971Y-114812786D01*
X167087213Y-114668028D01*
X166921614Y-114547715D01*
X166915006Y-114544348D01*
X166828917Y-114500483D01*
X166778123Y-114452511D01*
X166761328Y-114384690D01*
X166783865Y-114318555D01*
X166828917Y-114279516D01*
X166921610Y-114232287D01*
X167003230Y-114172987D01*
X167087213Y-114111971D01*
X167087215Y-114111968D01*
X167087219Y-114111966D01*
X167231966Y-113967219D01*
X167231968Y-113967215D01*
X167231971Y-113967213D01*
X167286412Y-113892280D01*
X167352287Y-113801610D01*
X167445220Y-113619219D01*
X167508477Y-113424534D01*
X167540500Y-113222352D01*
X167540500Y-113017648D01*
X167525747Y-112924500D01*
X167508477Y-112815465D01*
X167445218Y-112620776D01*
X167390057Y-112512518D01*
X167352287Y-112438390D01*
X167332146Y-112410668D01*
X167231971Y-112272786D01*
X167087213Y-112128028D01*
X166921614Y-112007715D01*
X166915006Y-112004348D01*
X166828917Y-111960483D01*
X166778123Y-111912511D01*
X166761328Y-111844690D01*
X166783865Y-111778555D01*
X166828917Y-111739516D01*
X166921610Y-111692287D01*
X167031715Y-111612292D01*
X167087213Y-111571971D01*
X167087215Y-111571968D01*
X167087219Y-111571966D01*
X167231966Y-111427219D01*
X167231968Y-111427215D01*
X167231971Y-111427213D01*
X167284732Y-111354590D01*
X167352287Y-111261610D01*
X167445220Y-111079219D01*
X167508477Y-110884534D01*
X167540500Y-110682352D01*
X167540500Y-110477648D01*
X167524751Y-110378212D01*
X167508477Y-110275465D01*
X167477894Y-110181342D01*
X167445220Y-110080781D01*
X167445218Y-110080778D01*
X167445218Y-110080776D01*
X167407476Y-110006704D01*
X167352287Y-109898390D01*
X167338792Y-109879815D01*
X167231971Y-109732786D01*
X167087213Y-109588028D01*
X166921614Y-109467715D01*
X166915006Y-109464348D01*
X166828917Y-109420483D01*
X166778123Y-109372511D01*
X166761328Y-109304690D01*
X166783865Y-109238555D01*
X166828917Y-109199516D01*
X166921610Y-109152287D01*
X166942770Y-109136913D01*
X167087213Y-109031971D01*
X167087215Y-109031968D01*
X167087219Y-109031966D01*
X167231966Y-108887219D01*
X167231968Y-108887215D01*
X167231971Y-108887213D01*
X167284732Y-108814590D01*
X167352287Y-108721610D01*
X167445220Y-108539219D01*
X167508477Y-108344534D01*
X167540500Y-108142352D01*
X167540500Y-107937648D01*
X167517211Y-107790609D01*
X167508477Y-107735465D01*
X167445218Y-107540776D01*
X167411503Y-107474607D01*
X167352287Y-107358390D01*
X167344556Y-107347749D01*
X167231971Y-107192786D01*
X167087213Y-107048028D01*
X166921614Y-106927715D01*
X166915006Y-106924348D01*
X166828917Y-106880483D01*
X166778123Y-106832511D01*
X166761328Y-106764690D01*
X166783865Y-106698555D01*
X166828917Y-106659516D01*
X166921610Y-106612287D01*
X166942770Y-106596913D01*
X167087213Y-106491971D01*
X167087215Y-106491968D01*
X167087219Y-106491966D01*
X167231966Y-106347219D01*
X167231968Y-106347215D01*
X167231971Y-106347213D01*
X167284732Y-106274590D01*
X167352287Y-106181610D01*
X167445220Y-105999219D01*
X167508477Y-105804534D01*
X167540500Y-105602352D01*
X167540500Y-105397648D01*
X167508477Y-105195465D01*
X167445218Y-105000776D01*
X167411503Y-104934607D01*
X167352287Y-104818390D01*
X167344556Y-104807749D01*
X167231971Y-104652786D01*
X167087213Y-104508028D01*
X166921614Y-104387715D01*
X166915006Y-104384348D01*
X166828917Y-104340483D01*
X166778123Y-104292511D01*
X166761328Y-104224690D01*
X166783865Y-104158555D01*
X166828917Y-104119516D01*
X166921610Y-104072287D01*
X166942770Y-104056913D01*
X167087213Y-103951971D01*
X167087215Y-103951968D01*
X167087219Y-103951966D01*
X167231966Y-103807219D01*
X167231968Y-103807215D01*
X167231971Y-103807213D01*
X167284732Y-103734590D01*
X167352287Y-103641610D01*
X167445220Y-103459219D01*
X167508477Y-103264534D01*
X167540500Y-103062352D01*
X167540500Y-102857648D01*
X167508477Y-102655466D01*
X167445220Y-102460781D01*
X167445218Y-102460778D01*
X167445218Y-102460776D01*
X167411503Y-102394607D01*
X167352287Y-102278390D01*
X167332101Y-102250606D01*
X167231971Y-102112786D01*
X167087213Y-101968028D01*
X166921614Y-101847715D01*
X166915006Y-101844348D01*
X166828917Y-101800483D01*
X166778123Y-101752511D01*
X166761328Y-101684690D01*
X166783865Y-101618555D01*
X166828917Y-101579516D01*
X166921610Y-101532287D01*
X166942770Y-101516913D01*
X167087213Y-101411971D01*
X167087215Y-101411968D01*
X167087219Y-101411966D01*
X167231966Y-101267219D01*
X167231968Y-101267215D01*
X167231971Y-101267213D01*
X167284732Y-101194590D01*
X167352287Y-101101610D01*
X167445220Y-100919219D01*
X167508477Y-100724534D01*
X167540500Y-100522352D01*
X167540500Y-100317648D01*
X167526144Y-100227007D01*
X167508477Y-100115465D01*
X167445218Y-99920776D01*
X167352419Y-99738650D01*
X167352287Y-99738390D01*
X167344556Y-99727749D01*
X167231971Y-99572786D01*
X167087215Y-99428030D01*
X167083954Y-99425244D01*
X167045770Y-99366731D01*
X167040500Y-99330966D01*
X167040500Y-98969033D01*
X167060185Y-98901994D01*
X167083962Y-98874748D01*
X167087212Y-98871971D01*
X167087219Y-98871966D01*
X167231966Y-98727219D01*
X167231968Y-98727215D01*
X167231971Y-98727213D01*
X167284732Y-98654590D01*
X167352287Y-98561610D01*
X167445220Y-98379219D01*
X167508477Y-98184534D01*
X167540500Y-97982352D01*
X167540500Y-97777648D01*
X167508477Y-97575466D01*
X167445220Y-97380781D01*
X167445218Y-97380778D01*
X167445218Y-97380776D01*
X167382767Y-97258211D01*
X167352287Y-97198390D01*
X167332101Y-97170606D01*
X167231971Y-97032786D01*
X167087213Y-96888028D01*
X166921611Y-96767713D01*
X166828369Y-96720203D01*
X166777574Y-96672229D01*
X166760779Y-96604407D01*
X166783317Y-96538273D01*
X166828371Y-96499234D01*
X166921347Y-96451861D01*
X167086894Y-96331582D01*
X167086895Y-96331582D01*
X167231582Y-96186895D01*
X167231582Y-96186894D01*
X167351859Y-96021349D01*
X167444755Y-95839029D01*
X167507990Y-95644413D01*
X167516609Y-95590000D01*
X166673012Y-95590000D01*
X166705925Y-95532993D01*
X166740000Y-95405826D01*
X166740000Y-95274174D01*
X166705925Y-95147007D01*
X166673012Y-95090000D01*
X167516609Y-95090000D01*
X167507990Y-95035586D01*
X167444755Y-94840970D01*
X167351859Y-94658650D01*
X167231582Y-94493105D01*
X167231582Y-94493104D01*
X167086895Y-94348417D01*
X166921349Y-94228140D01*
X166828370Y-94180765D01*
X166777574Y-94132790D01*
X166760779Y-94064969D01*
X166783316Y-93998835D01*
X166828370Y-93959795D01*
X166832788Y-93957544D01*
X166921610Y-93912287D01*
X166942770Y-93896913D01*
X167087213Y-93791971D01*
X167087215Y-93791968D01*
X167087219Y-93791966D01*
X167231966Y-93647219D01*
X167231972Y-93647210D01*
X167234748Y-93643962D01*
X167293258Y-93605773D01*
X167329033Y-93600500D01*
X168278844Y-93600500D01*
X168278845Y-93600499D01*
X168433497Y-93569737D01*
X168579179Y-93509394D01*
X168710289Y-93421789D01*
X174121789Y-88010289D01*
X174209394Y-87879179D01*
X174269737Y-87733497D01*
X174300500Y-87578842D01*
X174300500Y-87421158D01*
X174300500Y-85921158D01*
X174292150Y-85879179D01*
X174292150Y-85879175D01*
X174269739Y-85766510D01*
X174269738Y-85766503D01*
X174209394Y-85620821D01*
X174209392Y-85620818D01*
X174209390Y-85620814D01*
X174121789Y-85489711D01*
X174121786Y-85489707D01*
X173510291Y-84878212D01*
X173510288Y-84878210D01*
X173379185Y-84790609D01*
X173379172Y-84790602D01*
X173233501Y-84730264D01*
X173233489Y-84730261D01*
X173078845Y-84699500D01*
X173078842Y-84699500D01*
X81578842Y-84699500D01*
X81421157Y-84699500D01*
X81421154Y-84699500D01*
X81266509Y-84730261D01*
X81266497Y-84730264D01*
X81223832Y-84747936D01*
X81223833Y-84747937D01*
X81120823Y-84790604D01*
X81120814Y-84790609D01*
X80989712Y-84878209D01*
X80989711Y-84878211D01*
X80989710Y-84878212D01*
X74989711Y-90878211D01*
X74933960Y-90933962D01*
X74878209Y-90989712D01*
X74790609Y-91120814D01*
X74790602Y-91120827D01*
X74730264Y-91266498D01*
X74730261Y-91266510D01*
X74699500Y-91421153D01*
X74699500Y-91578846D01*
X74730261Y-91733489D01*
X74730264Y-91733501D01*
X74790602Y-91879172D01*
X74790604Y-91879176D01*
X74790606Y-91879179D01*
X74798602Y-91891147D01*
X74819480Y-91957821D01*
X74819500Y-91960036D01*
X74819500Y-109775500D01*
X74799815Y-109842539D01*
X74747011Y-109888294D01*
X74695500Y-109899500D01*
X74219998Y-109899500D01*
X74219980Y-109899501D01*
X74117203Y-109910000D01*
X74117200Y-109910001D01*
X73950668Y-109965185D01*
X73950663Y-109965187D01*
X73801342Y-110057289D01*
X73677289Y-110181342D01*
X73585187Y-110330663D01*
X73585186Y-110330666D01*
X73530001Y-110497203D01*
X73530001Y-110497204D01*
X73530000Y-110497204D01*
X73519500Y-110599983D01*
X61950540Y-110599983D01*
X61767933Y-110417376D01*
X61767926Y-110417370D01*
X61549483Y-110249754D01*
X61549482Y-110249753D01*
X61549479Y-110249751D01*
X61430995Y-110181344D01*
X61311028Y-110112080D01*
X61311017Y-110112075D01*
X61056630Y-110006704D01*
X60901676Y-109965185D01*
X60790666Y-109935440D01*
X60790660Y-109935439D01*
X60790655Y-109935438D01*
X60517684Y-109899501D01*
X60517679Y-109899500D01*
X60517674Y-109899500D01*
X60242326Y-109899500D01*
X60242320Y-109899500D01*
X60242315Y-109899501D01*
X59969344Y-109935438D01*
X59969337Y-109935439D01*
X59969334Y-109935440D01*
X59913125Y-109950500D01*
X59703369Y-110006704D01*
X59448982Y-110112075D01*
X59448971Y-110112080D01*
X59210516Y-110249754D01*
X58992073Y-110417370D01*
X58992066Y-110417376D01*
X58797376Y-110612066D01*
X58797370Y-110612073D01*
X58629754Y-110830516D01*
X58492080Y-111068971D01*
X58492075Y-111068982D01*
X58386704Y-111323369D01*
X58358880Y-111427213D01*
X58320093Y-111571971D01*
X58315441Y-111589331D01*
X58315438Y-111589344D01*
X58279501Y-111862315D01*
X58279500Y-111862332D01*
X51709283Y-111862332D01*
X51998784Y-82622770D01*
X52019131Y-82555931D01*
X52072386Y-82510701D01*
X52122778Y-82500000D01*
X185877165Y-82500000D01*
X185944204Y-82519685D01*
G37*
%TD.AperFunction*%
%TD*%
M02*
