%TF.GenerationSoftware,KiCad,Pcbnew,10.0.1*%
%TF.CreationDate,2026-05-24T20:52:25+05:30*%
%TF.ProjectId,CUBESAT_EPS,43554245-5341-4545-9f45-50532e6b6963,rev?*%
%TF.SameCoordinates,Original*%
%TF.FileFunction,Soldermask,Bot*%
%TF.FilePolarity,Negative*%
%FSLAX46Y46*%
G04 Gerber Fmt 4.6, Leading zero omitted, Abs format (unit mm)*
G04 Created by KiCad (PCBNEW 10.0.1) date 2026-05-24 20:52:25*
%MOMM*%
%LPD*%
G01*
G04 APERTURE LIST*
G04 Aperture macros list*
%AMRoundRect*
0 Rectangle with rounded corners*
0 $1 Rounding radius*
0 $2 $3 $4 $5 $6 $7 $8 $9 X,Y pos of 4 corners*
0 Add a 4 corners polygon primitive as box body*
4,1,4,$2,$3,$4,$5,$6,$7,$8,$9,$2,$3,0*
0 Add four circle primitives for the rounded corners*
1,1,$1+$1,$2,$3*
1,1,$1+$1,$4,$5*
1,1,$1+$1,$6,$7*
1,1,$1+$1,$8,$9*
0 Add four rect primitives between the rounded corners*
20,1,$1+$1,$2,$3,$4,$5,0*
20,1,$1+$1,$4,$5,$6,$7,0*
20,1,$1+$1,$6,$7,$8,$9,0*
20,1,$1+$1,$8,$9,$2,$3,0*%
G04 Aperture macros list end*
%ADD10C,1.600000*%
%ADD11RoundRect,0.250000X-1.050000X1.050000X-1.050000X-1.050000X1.050000X-1.050000X1.050000X1.050000X0*%
%ADD12C,2.600000*%
%ADD13R,1.905000X2.000000*%
%ADD14O,1.905000X2.000000*%
%ADD15R,1.600000X1.600000*%
%ADD16O,1.600000X1.600000*%
%ADD17RoundRect,0.250000X-1.050000X-1.050000X1.050000X-1.050000X1.050000X1.050000X-1.050000X1.050000X0*%
%ADD18RoundRect,0.250000X1.350000X1.350000X-1.350000X1.350000X-1.350000X-1.350000X1.350000X-1.350000X0*%
%ADD19C,3.200000*%
%ADD20RoundRect,0.250000X-0.550000X0.550000X-0.550000X-0.550000X0.550000X-0.550000X0.550000X0.550000X0*%
G04 APERTURE END LIST*
D10*
%TO.C,C1*%
X83500000Y-121500000D03*
X83500000Y-116500000D03*
%TD*%
%TO.C,R3*%
X110000000Y-134920000D03*
X110000000Y-145080000D03*
%TD*%
D11*
%TO.C,J2*%
X135000000Y-140420000D03*
D12*
X135000000Y-145500000D03*
%TD*%
D10*
%TO.C,R2*%
X91000000Y-146500000D03*
X91000000Y-156660000D03*
%TD*%
%TO.C,C2*%
X108500000Y-121500000D03*
X108500000Y-116500000D03*
%TD*%
%TO.C,R1*%
X91500000Y-128920000D03*
X91500000Y-139080000D03*
%TD*%
D13*
%TO.C,U2*%
X133500000Y-112000000D03*
D14*
X130960000Y-112000000D03*
X128420000Y-112000000D03*
%TD*%
D15*
%TO.C,A1*%
X151000000Y-92800000D03*
D16*
X151000000Y-95340000D03*
X151000000Y-97880000D03*
X151000000Y-100420000D03*
X151000000Y-102960000D03*
X151000000Y-105500000D03*
X151000000Y-108040000D03*
X151000000Y-110580000D03*
X151000000Y-113120000D03*
X151000000Y-115660000D03*
X151000000Y-118200000D03*
X151000000Y-120740000D03*
X151000000Y-123280000D03*
X151000000Y-125820000D03*
X151000000Y-128360000D03*
X166240000Y-128360000D03*
X166240000Y-125820000D03*
X166240000Y-123280000D03*
X166240000Y-120740000D03*
X166240000Y-118200000D03*
X166240000Y-115660000D03*
X166240000Y-113120000D03*
X166240000Y-110580000D03*
X166240000Y-108040000D03*
X166240000Y-105500000D03*
X166240000Y-102960000D03*
X166240000Y-100420000D03*
X166240000Y-97880000D03*
X166240000Y-95340000D03*
X166240000Y-92800000D03*
%TD*%
D17*
%TO.C,J1*%
X60420000Y-126000000D03*
D12*
X65500000Y-126000000D03*
%TD*%
D13*
%TO.C,U1*%
X94960000Y-111950000D03*
D14*
X97500000Y-111950000D03*
X100040000Y-111950000D03*
%TD*%
D13*
%TO.C,Q1*%
X118420000Y-131000000D03*
D14*
X120960000Y-131000000D03*
X123500000Y-131000000D03*
%TD*%
D18*
%TO.C,D1*%
X75620000Y-112000000D03*
D19*
X60380000Y-112000000D03*
%TD*%
D20*
%TO.C,C4*%
X142000000Y-117294888D03*
D10*
X142000000Y-119794888D03*
%TD*%
D20*
%TO.C,C3*%
X121500000Y-117294888D03*
D10*
X121500000Y-119794888D03*
%TD*%
M02*
