M48
; DRILL file KiCad 10.0.1 date 2026-05-24T20:53:08
; FORMAT={-:-/ absolute / metric / decimal}
; #@! TF.CreationDate,2026-05-24T20:53:08+05:30
; #@! TF.GenerationSoftware,Kicad,Pcbnew,10.0.1
; #@! TF.FileFunction,Plated,1,2,PTH
FMAT,2
METRIC
; #@! TA.AperFunction,Plated,PTH,ComponentDrill
T1C0.800
; #@! TA.AperFunction,Plated,PTH,ComponentDrill
T2C1.000
; #@! TA.AperFunction,Plated,PTH,ComponentDrill
T3C1.100
; #@! TA.AperFunction,Plated,PTH,ComponentDrill
T4C1.300
; #@! TA.AperFunction,Plated,PTH,ComponentDrill
T5C1.600
%
G90
G05
T1
X83.5Y-116.5
X83.5Y-121.5
X91.0Y-146.5
X91.0Y-156.66
X91.5Y-128.92
X91.5Y-139.08
X108.5Y-116.5
X108.5Y-121.5
X110.0Y-134.92
X110.0Y-145.08
X121.5Y-117.295
X121.5Y-119.795
X142.0Y-117.295
X142.0Y-119.795
T2
X151.0Y-92.8
X151.0Y-95.34
X151.0Y-97.88
X151.0Y-100.42
X151.0Y-102.96
X151.0Y-105.5
X151.0Y-108.04
X151.0Y-110.58
X151.0Y-113.12
X151.0Y-115.66
X151.0Y-118.2
X151.0Y-120.74
X151.0Y-123.28
X151.0Y-125.82
X151.0Y-128.36
X166.24Y-92.8
X166.24Y-95.34
X166.24Y-97.88
X166.24Y-100.42
X166.24Y-102.96
X166.24Y-105.5
X166.24Y-108.04
X166.24Y-110.58
X166.24Y-113.12
X166.24Y-115.66
X166.24Y-118.2
X166.24Y-120.74
X166.24Y-123.28
X166.24Y-125.82
X166.24Y-128.36
T3
X94.96Y-111.95
X97.5Y-111.95
X100.04Y-111.95
X118.42Y-131.0
X120.96Y-131.0
X123.5Y-131.0
X128.42Y-112.0
X130.96Y-112.0
X133.5Y-112.0
T4
X60.42Y-126.0
X65.5Y-126.0
X135.0Y-140.42
X135.0Y-145.5
T5
X60.38Y-112.0
X75.62Y-112.0
M30
